<svg width="191" height="48" viewBox="0 0 191 48" fill="none" xmlns="http://www.w3.org/2000/svg">
<path d="M3 0.5C1.61929 0.5 0.5 1.61929 0.5 3C0.5 4.38071 1.61929 5.5 3 5.5V0.5ZM56.1594 25.1205L53.8593 24.141L56.1594 25.1205ZM189.392 31.093C190.368 30.1167 190.368 28.5338 189.392 27.5575L173.482 11.6476C172.506 10.6713 170.923 10.6713 169.946 11.6476C168.97 12.6239 168.97 14.2068 169.946 15.1831L184.089 29.3253L169.946 43.4674C168.97 44.4437 168.97 46.0266 169.946 47.0029C170.923 47.9792 172.506 47.9792 173.482 47.0029L189.392 31.093ZM3 5.5C3.0433 5.5 3.08659 5.5 3.12989 5.5C3.17319 5.5 3.21649 5.5 3.25978 5.5C3.30308 5.5 3.34638 5.5 3.38967 5.5C3.43297 5.5 3.47627 5.5 3.51957 5.5C3.56286 5.5 3.60616 5.5 3.64946 5.5C3.69275 5.5 3.73605 5.5 3.77935 5.5C3.82265 5.5 3.86594 5.5 3.90924 5.5C3.95254 5.5 3.99583 5.5 4.03913 5.5C4.08243 5.5 4.12573 5.5 4.16902 5.5C4.21232 5.5 4.25562 5.5 4.29891 5.5C4.34221 5.5 4.38551 5.5 4.42881 5.5C4.4721 5.5 4.5154 5.5 4.5587 5.5C4.60199 5.5 4.64529 5.5 4.68859 5.5C4.73189 5.5 4.77518 5.5 4.81848 5.5C4.86178 5.5 4.90507 5.5 4.94837 5.5C4.99167 5.5 5.03497 5.5 5.07826 5.5C5.12156 5.5 5.16486 5.5 5.20815 5.5C5.25145 5.5 5.29475 5.5 5.33804 5.5C5.38134 5.5 5.42464 5.5 5.46794 5.5C5.51123 5.5 5.55453 5.5 5.59783 5.5C5.64112 5.5 5.68442 5.5 5.72772 5.5C5.77102 5.5 5.81431 5.5 5.85761 5.5C5.90091 5.5 5.9442 5.5 5.9875 5.5C6.0308 5.5 6.0741 5.5 6.11739 5.5C6.16069 5.5 6.20399 5.5 6.24728 5.5C6.29058 5.5 6.33388 5.5 6.37718 5.5C6.42047 5.5 6.46377 5.5 6.50707 5.5C6.55036 5.5 6.59366 5.5 6.63696 5.5C6.68026 5.5 6.72355 5.5 6.76685 5.5C6.81015 5.5 6.85344 5.5 6.89674 5.5C6.94004 5.5 6.98334 5.5 7.02663 5.5C7.06993 5.5 7.11323 5.5 7.15652 5.5C7.19982 5.5 7.24312 5.5 7.28642 5.5C7.32971 5.5 7.37301 5.5 7.41631 5.5C7.4596 5.5 7.5029 5.5 7.5462 5.5C7.5895 5.5 7.63279 5.5 7.67609 5.5C7.71939 5.5 7.76268 5.5 7.80598 5.5C7.84928 5.5 7.89258 5.5 7.93587 5.5C7.97917 5.5 8.02247 5.5 8.06576 5.5C8.10906 5.5 8.15236 5.5 8.19566 5.5C8.23895 5.5 8.28225 5.5 8.32555 5.5C8.36884 5.5 8.41214 5.5 8.45544 5.5C8.49874 5.5 8.54203 5.5 8.58533 5.5C8.62863 5.5 8.67192 5.5 8.71522 5.5C8.75852 5.5 8.80182 5.5 8.84511 5.5C8.88841 5.5 8.93171 5.5 8.975 5.5C9.0183 5.5 9.0616 5.5 9.1049 5.5C9.14819 5.5 9.19149 5.5 9.23479 5.5C9.27808 5.5 9.32138 5.5 9.36468 5.5C9.40798 5.5 9.45127 5.5 9.49457 5.5C9.53787 5.5 9.58116 5.5 9.62446 5.5C9.66776 5.5 9.71106 5.5 9.75435 5.5C9.79765 5.5 9.84095 5.5 9.88424 5.5C9.92754 5.5 9.97084 5.5 10.0141 5.5C10.0574 5.5 10.1007 5.5 10.144 5.5C10.1873 5.5 10.2306 5.5 10.2739 5.5C10.3172 5.5 10.3605 5.5 10.4038 5.5C10.4471 5.5 10.4904 5.5 10.5337 5.5C10.577 5.5 10.6203 5.5 10.6636 5.5C10.7069 5.5 10.7502 5.5 10.7935 5.5C10.8368 5.5 10.8801 5.5 10.9234 5.5C10.9667 5.5 11.01 5.5 11.0533 5.5C11.0966 5.5 11.1399 5.5 11.1832 5.5C11.2265 5.5 11.2698 5.5 11.313 5.5C11.3563 5.5 11.3996 5.5 11.4429 5.5C11.4862 5.5 11.5295 5.5 11.5728 5.5C11.6161 5.5 11.6594 5.5 11.7027 5.5C11.746 5.5 11.7893 5.5 11.8326 5.5C11.8759 5.5 11.9192 5.5 11.9625 5.5C12.0058 5.5 12.0491 5.5 12.0924 5.5C12.1357 5.5 12.179 5.5 12.2223 5.5C12.2656 5.5 12.3089 5.5 12.3522 5.5C12.3955 5.5 12.4388 5.5 12.4821 5.5C12.5254 5.5 12.5687 5.5 12.612 5.5C12.6553 5.5 12.6986 5.5 12.7419 5.5C12.7852 5.5 12.8284 5.5 12.8717 5.5C12.915 5.5 12.9583 5.5 13.0016 5.5C13.0449 5.5 13.0882 5.5 13.1315 5.5C13.1748 5.5 13.2181 5.5 13.2614 5.5C13.3047 5.5 13.348 5.5 13.3913 5.5C13.4346 5.5 13.4779 5.5 13.5212 5.5C13.5645 5.5 13.6078 5.5 13.6511 5.5C13.6944 5.5 13.7377 5.5 13.781 5.5C13.8243 5.5 13.8676 5.5 13.9109 5.5C13.9542 5.5 13.9975 5.5 14.0408 5.5C14.0841 5.5 14.1274 5.5 14.1707 5.5C14.214 5.5 14.2573 5.5 14.3006 5.5C14.3438 5.5 14.3871 5.5 14.4304 5.5C14.4737 5.5 14.517 5.5 14.5603 5.5C14.6036 5.5 14.6469 5.5 14.6902 5.5C14.7335 5.5 14.7768 5.5 14.8201 5.5C14.8634 5.5 14.9067 5.5 14.95 5.5C14.9933 5.5 15.0366 5.5 15.0799 5.5C15.1232 5.5 15.1665 5.5 15.2098 5.5C15.2531 5.5 15.2964 5.5 15.3397 5.5C15.383 5.5 15.4263 5.5 15.4696 5.5C15.5129 5.5 15.5562 5.5 15.5995 5.5C15.6428 5.5 15.6861 5.5 15.7294 5.5C15.7727 5.5 15.816 5.5 15.8592 5.5C15.9025 5.5 15.9458 5.5 15.9891 5.5C16.0324 5.5 16.0757 5.5 16.119 5.5C16.1623 5.5 16.2056 5.5 16.2489 5.5C16.2922 5.5 16.3355 5.5 16.3788 5.5C16.4221 5.5 16.4654 5.5 16.5087 5.5C16.552 5.5 16.5953 5.5 16.6386 5.5C16.6819 5.5 16.7252 5.5 16.7685 5.5C16.8118 5.5 16.8551 5.5 16.8984 5.5C16.9417 5.5 16.985 5.5 17.0283 5.5C17.0716 5.5 17.1149 5.5 17.1582 5.5C17.2015 5.5 17.2448 5.5 17.2881 5.5C17.3313 5.5 17.3746 5.5 17.4179 5.5C17.4612 5.5 17.5045 5.5 17.5478 5.5C17.5911 5.5 17.6344 5.5 17.6777 5.5C17.721 5.5 17.7643 5.5 17.8076 5.5C17.8509 5.5 17.8942 5.5 17.9375 5.5C17.9808 5.5 18.0241 5.5 18.0674 5.5C18.1107 5.5 18.154 5.5 18.1973 5.5C18.2406 5.5 18.2839 5.5 18.3272 5.5C18.3705 5.5 18.4138 5.5 18.4571 5.5C18.5004 5.5 18.5437 5.5 18.587 5.5C18.6303 5.5 18.6736 5.5 18.7169 5.5C18.7602 5.5 18.8035 5.5 18.8467 5.5C18.89 5.5 18.9333 5.5 18.9766 5.5C19.0199 5.5 19.0632 5.5 19.1065 5.5C19.1498 5.5 19.1931 5.5 19.2364 5.5C19.2797 5.5 19.323 5.5 19.3663 5.5C19.4096 5.5 19.4529 5.5 19.4962 5.5C19.5395 5.5 19.5828 5.5 19.6261 5.5C19.6694 5.5 19.7127 5.5 19.756 5.5C19.7993 5.5 19.8426 5.5 19.8859 5.5C19.9292 5.5 19.9725 5.5 20.0158 5.5C20.0591 5.5 20.1024 5.5 20.1457 5.5C20.189 5.5 20.2323 5.5 20.2756 5.5C20.3189 5.5 20.3621 5.5 20.4054 5.5C20.4487 5.5 20.492 5.5 20.5353 5.5C20.5786 5.5 20.6219 5.5 20.6652 5.5C20.7085 5.5 20.7518 5.5 20.7951 5.5C20.8384 5.5 20.8817 5.5 20.925 5.5C20.9683 5.5 21.0116 5.5 21.0549 5.5C21.0982 5.5 21.1415 5.5 21.1848 5.5C21.2281 5.5 21.2714 5.5 21.3147 5.5C21.358 5.5 21.4013 5.5 21.4446 5.5C21.4879 5.5 21.5312 5.5 21.5745 5.5C21.6178 5.5 21.6611 5.5 21.7044 5.5C21.7477 5.5 21.791 5.5 21.8343 5.5C21.8775 5.5 21.9208 5.5 21.9641 5.5C22.0074 5.5 22.0507 5.5 22.094 5.5C22.1373 5.5 22.1806 5.5 22.2239 5.5C22.2672 5.5 22.3105 5.5 22.3538 5.5C22.3971 5.5 22.4404 5.5 22.4837 5.5C22.527 5.5 22.5703 5.5 22.6136 5.5C22.6569 5.5 22.7002 5.5 22.7435 5.5C22.7868 5.5 22.8301 5.5 22.8734 5.5C22.9167 5.5 22.96 5.5 23.0033 5.5C23.0466 5.5 23.0899 5.5 23.1332 5.5C23.1765 5.5 23.2198 5.5 23.2631 5.5C23.3064 5.5 23.3497 5.5 23.3929 5.5C23.4362 5.5 23.4795 5.5 23.5228 5.5C23.5661 5.5 23.6094 5.5 23.6527 5.5C23.696 5.5 23.7393 5.5 23.7826 5.5C23.8259 5.5 23.8692 5.5 23.9125 5.5C23.9558 5.5 23.9991 5.5 24.0424 5.5C24.0857 5.5 24.129 5.5 24.1723 5.5C24.2156 5.5 24.2589 5.5 24.3022 5.5C24.3455 5.5 24.3888 5.5 24.4321 5.5C24.4754 5.5 24.5187 5.5 24.562 5.5C24.6053 5.5 24.6486 5.5 24.6919 5.5C24.7352 5.5 24.7785 5.5 24.8218 5.5C24.865 5.5 24.9083 5.5 24.9516 5.5C24.9949 5.5 25.0382 5.5 25.0815 5.5C25.1248 5.5 25.1681 5.5 25.2114 5.5C25.2547 5.5 25.298 5.5 25.3413 5.5C25.3846 5.5 25.4279 5.5 25.4712 5.5C25.5145 5.5 25.5578 5.5 25.6011 5.5C25.6444 5.5 25.6877 5.5 25.731 5.5C25.7743 5.5 25.8176 5.5 25.8609 5.5C25.9042 5.5 25.9475 5.5 25.9908 5.5C26.0341 5.5 26.0774 5.5 26.1207 5.5C26.164 5.5 26.2073 5.5 26.2506 5.5C26.2939 5.5 26.3372 5.5 26.3804 5.5C26.4237 5.5 26.467 5.5 26.5103 5.5C26.5536 5.5 26.5969 5.5 26.6402 5.5C26.6835 5.5 26.7268 5.5 26.7701 5.5C26.8134 5.5 26.8567 5.5 26.9 5.5C26.9433 5.5 26.9866 5.5 27.0299 5.5C27.0732 5.5 27.1165 5.5 27.1598 5.5C27.2031 5.5 27.2464 5.5 27.2897 5.5C27.333 5.5 27.3763 5.5 27.4196 5.5C27.4629 5.5 27.5062 5.5 27.5495 5.5C27.5928 5.5 27.6361 5.5 27.6794 5.5C27.7227 5.5 27.766 5.5 27.8093 5.5C27.8526 5.5 27.8958 5.5 27.9391 5.5C27.9824 5.5 28.0257 5.5 28.069 5.5C28.1123 5.5 28.1556 5.5 28.1989 5.5C28.2422 5.5 28.2855 5.5 28.3288 5.5C28.3721 5.5 28.4154 5.5 28.4587 5.5C28.502 5.5 28.5453 5.5 28.5886 5.5C28.6319 5.5 28.6752 5.5 28.7185 5.5C28.7618 5.5 28.8051 5.5 28.8484 5.5C28.8917 5.5 28.935 5.5 28.9783 5.5C29.0216 5.5 29.0649 5.5 29.1082 5.5C29.1515 5.5 29.1948 5.5 29.2381 5.5C29.2814 5.5 29.3247 5.5 29.368 5.5C29.4112 5.5 29.4545 5.5 29.4978 5.5C29.5411 5.5 29.5844 5.5 29.6277 5.5C29.671 5.5 29.7143 5.5 29.7576 5.5C29.8009 5.5 29.8442 5.5 29.8875 5.5C29.9308 5.5 29.9741 5.5 30.0174 5.5C30.0607 5.5 30.104 5.5 30.1473 5.5C30.1906 5.5 30.2339 5.5 30.2772 5.5C30.3205 5.5 30.3638 5.5 30.4071 5.5C30.4504 5.5 30.4937 5.5 30.537 5.5C30.5803 5.5 30.6236 5.5 30.6669 5.5C30.7102 5.5 30.7535 5.5 30.7968 5.5C30.8401 5.5 30.8834 5.5 30.9266 5.5C30.9699 5.5 31.0132 5.5 31.0565 5.5C31.0998 5.5 31.1431 5.5 31.1864 5.5C31.2297 5.5 31.273 5.5 31.3163 5.5C31.3596 5.5 31.4029 5.5 31.4462 5.5C31.4895 5.5 31.5328 5.5 31.5761 5.5C31.6194 5.5 31.6627 5.5 31.706 5.5C31.7493 5.5 31.7926 5.5 31.8359 5.5C31.8792 5.5 31.9225 5.5 31.9658 5.5C32.0091 5.5 32.0524 5.5 32.0957 5.5C32.139 5.5 32.1823 5.5 32.2256 5.5C32.2689 5.5 32.3122 5.5 32.3555 5.5C32.3988 5.5 32.442 5.5 32.4853 5.5C32.5286 5.5 32.5719 5.5 32.6152 5.5C32.6585 5.5 32.7018 5.5 32.7451 5.5C32.7884 5.5 32.8317 5.5 32.875 5.5C32.9183 5.5 32.9616 5.5 33.0049 5.5C33.0482 5.5 33.0915 5.5 33.1348 5.5C33.1781 5.5 33.2214 5.5 33.2647 5.5C33.308 5.5 33.3513 5.5 33.3946 5.5C33.4379 5.5 33.4812 5.5 33.5245 5.5C33.5678 5.5 33.6111 5.5 33.6544 5.5C33.6977 5.5 33.741 5.5 33.7843 5.5C33.8276 5.5 33.8709 5.5 33.9142 5.5C33.9574 5.5 34.0007 5.5 34.044 5.5C34.0873 5.5 34.1306 5.5 34.1739 5.5C34.2172 5.5 34.2605 5.5 34.3038 5.5C34.3471 5.5 34.3904 5.5 34.4337 5.5C34.477 5.5 34.5203 5.5 34.5636 5.5C34.6069 5.5 34.6502 5.5 34.6935 5.5C34.7368 5.5 34.7801 5.5 34.8234 5.5C34.8667 5.5 34.91 5.5 34.9533 5.5C34.9966 5.5 35.0399 5.5 35.0832 5.5C35.1265 5.5 35.1698 5.5 35.2131 5.5C35.2564 5.5 35.2997 5.5 35.343 5.5C35.3863 5.5 35.4296 5.5 35.4728 5.5C35.5161 5.5 35.5594 5.5 35.6027 5.5C35.646 5.5 35.6893 5.5 35.7326 5.5C35.7759 5.5 35.8192 5.5 35.8625 5.5C35.9058 5.5 35.9491 5.5 35.9924 5.5C36.0357 5.5 36.079 5.5 36.1223 5.5C36.1656 5.5 36.2089 5.5 36.2522 5.5C36.2955 5.5 36.3388 5.5 36.3821 5.5C36.4254 5.5 36.4687 5.5 36.512 5.5C36.5553 5.5 36.5986 5.5 36.6419 5.5C36.6852 5.5 36.7285 5.5 36.7718 5.5C36.8151 5.5 36.8584 5.5 36.9017 5.5C36.945 5.5 36.9882 5.5 37.0315 5.5C37.0748 5.5 37.1181 5.5 37.1614 5.5C37.2047 5.5 37.248 5.5 37.2913 5.5C37.3346 5.5 37.3779 5.5 37.4212 5.5C37.4645 5.5 37.5078 5.5 37.5511 5.5C37.5944 5.5 37.6377 5.5 37.681 5.5C37.7243 5.5 37.7676 5.5 37.8109 5.5C37.8542 5.5 37.8975 5.5 37.9408 5.5C37.9841 5.5 38.0274 5.5 38.0707 5.5C38.114 5.5 38.1573 5.5 38.2006 5.5C38.2439 5.5 38.2872 5.5 38.3305 5.5C38.3738 5.5 38.417 5.5 38.4604 5.5C38.5036 5.5 38.5469 5.5 38.5902 5.5C38.6335 5.5 38.6768 5.5 38.7201 5.5C38.7634 5.5 38.8067 5.5 38.85 5.5C38.8933 5.5 38.9366 5.5 38.9799 5.5C39.0232 5.5 39.0665 5.5 39.1098 5.5C39.1531 5.5 39.1964 5.5 39.2397 5.5C39.283 5.5 39.3263 5.5 39.3696 5.5C39.4129 5.5 39.4562 5.5 39.4995 5.5C39.5428 5.5 39.5861 5.5 39.6294 5.5C39.6727 5.5 39.716 5.5 39.7593 5.5C39.8026 5.5 39.8459 5.5 39.8892 5.5C39.9324 5.5 39.9757 5.5 40.019 5.5C40.0623 5.5 40.1056 5.5 40.1489 5.5C40.1922 5.5 40.2355 5.5 40.2788 5.5C40.3221 5.5 40.3654 5.5 40.4087 5.5C40.452 5.5 40.4953 5.5 40.5386 5.5C40.5819 5.5 40.6252 5.5 40.6685 5.5C40.7118 5.5 40.7551 5.5 40.7984 5.5C40.8417 5.5 40.885 5.5 40.9283 5.5C40.9716 5.5 41.0149 5.5 41.0582 5.5C41.1015 5.5 41.1448 5.5 41.1881 5.5C41.2314 5.5 41.2747 5.5 41.318 5.5C41.3613 5.5 41.4046 5.5 41.4478 5.5C41.4911 5.5 41.5344 5.5 41.5777 5.5C41.621 5.5 41.6643 5.5 41.7076 5.5C41.7509 5.5 41.7942 5.5 41.8375 5.5C41.8808 5.5 41.9241 5.5 41.9674 5.5C42.0107 5.5 42.054 5.5 42.0973 5.5C42.1406 5.5 42.1839 5.5 42.2272 5.5C42.2705 5.5 42.3138 5.5 42.3571 5.5C42.4004 5.5 42.4437 5.5 42.487 5.5C42.5303 5.5 42.5736 5.5 42.6169 5.5C42.6602 5.5 42.7035 5.5 42.7468 5.5C42.7901 5.5 42.8334 5.5 42.8767 5.5C42.92 5.5 42.9632 5.5 43.0065 5.5C43.0498 5.5 43.0931 5.5 43.1364 5.5C43.1797 5.5 43.223 5.5 43.2663 5.5C43.3096 5.5 43.3529 5.5 43.3962 5.5C43.4395 5.5 43.4828 5.5 43.5261 5.5C43.5694 5.5 43.6127 5.5 43.656 5.5C43.6993 5.5 43.7426 5.5 43.7859 5.5C43.8292 5.5 43.8725 5.5 43.9158 5.5C43.9591 5.5 44.0024 5.5 44.0457 5.5C44.089 5.5 44.1323 5.5 44.1756 5.5C44.2189 5.5 44.2622 5.5 44.3055 5.5C44.3488 5.5 44.3921 5.5 44.4354 5.5C44.4786 5.5 44.5219 5.5 44.5652 5.5C44.6085 5.5 44.6518 5.5 44.6951 5.5C44.7384 5.5 44.7817 5.5 44.825 5.5C44.8683 5.5 44.9116 5.5 44.9549 5.5C44.9982 5.5 45.0415 5.5 45.0848 5.5C45.1281 5.5 45.1714 5.5 45.2147 5.5C45.258 5.5 45.3013 5.5 45.3446 5.5C45.3879 5.5 45.4312 5.5 45.4745 5.5C45.5178 5.5 45.5611 5.5 45.6044 5.5C45.6477 5.5 45.691 5.5 45.7343 5.5C45.7776 5.5 45.8209 5.5 45.8642 5.5C45.9075 5.5 45.9508 5.5 45.994 5.5C46.0373 5.5 46.0806 5.5 46.1239 5.5C46.1672 5.5 46.2105 5.5 46.2538 5.5C46.2971 5.5 46.3404 5.5 46.3837 5.5C46.427 5.5 46.4703 5.5 46.5136 5.5C46.5569 5.5 46.6002 5.5 46.6435 5.5C46.6868 5.5 46.7301 5.5 46.7734 5.5C46.8167 5.5 46.86 5.5 46.9033 5.5C46.9466 5.5 46.9899 5.5 47.0332 5.5C47.0765 5.5 47.1198 5.5 47.1631 5.5C47.2064 5.5 47.2497 5.5 47.293 5.5C47.3363 5.5 47.3796 5.5 47.4229 5.5C47.4662 5.5 47.5094 5.5 47.5527 5.5C47.596 5.5 47.6393 5.5 47.6826 5.5C47.7259 5.5 47.7692 5.5 47.8125 5.5C47.8558 5.5 47.8991 5.5 47.9424 5.5C47.9857 5.5 48.029 5.5 48.0723 5.5C48.1156 5.5 48.1589 5.5 48.2022 5.5C48.2455 5.5 48.2888 5.5 48.3321 5.5C48.3754 5.5 48.4187 5.5 48.462 5.5C48.5053 5.5 48.5486 5.5 48.5919 5.5C48.6352 5.5 48.6785 5.5 48.7218 5.5C48.7651 5.5 48.8084 5.5 48.8517 5.5C48.895 5.5 48.9383 5.5 48.9816 5.5C49.0248 5.5 49.0681 5.5 49.1114 5.5C49.1547 5.5 49.198 5.5 49.2413 5.5C49.2846 5.5 49.3279 5.5 49.3712 5.5C49.4145 5.5 49.4578 5.5 49.5011 5.5C49.5444 5.5 49.5877 5.5 49.631 5.5C49.6743 5.5 49.7176 5.5 49.7609 5.5C49.8042 5.5 49.8475 5.5 49.8908 5.5C49.9341 5.5 49.9774 5.5 50.0207 5.5C50.064 5.5 50.1073 5.5 50.1506 5.5C50.1939 5.5 50.2372 5.5 50.2805 5.5C50.3238 5.5 50.3671 5.5 50.4104 5.5C50.4537 5.5 50.4969 5.5 50.5402 5.5C50.5835 5.5 50.6268 5.5 50.6701 5.5C50.7134 5.5 50.7567 5.5 50.8 5.5C50.8433 5.5 50.8866 5.5 50.9299 5.5C50.9732 5.5 51.0165 5.5 51.0598 5.5C51.1031 5.5 51.1464 5.5 51.1897 5.5C51.233 5.5 51.2763 5.5 51.3196 5.5C51.3629 5.5 51.4062 5.5 51.4495 5.5C51.4928 5.5 51.5361 5.5 51.5794 5.5C51.6227 5.5 51.666 5.5 51.7093 5.5C51.7526 5.5 51.7959 5.5 51.8392 5.5C51.8825 5.5 51.9258 5.5 51.9691 5.5C52.0123 5.5 52.0556 5.5 52.0989 5.5C52.1422 5.5 52.1855 5.5 52.2288 5.5C52.2721 5.5 52.3154 5.5 52.3587 5.5C52.402 5.5 52.4453 5.5 52.4886 5.5C52.5319 5.5 52.5752 5.5 52.6185 5.5C52.6618 5.5 52.7051 5.5 52.7484 5.5C52.7917 5.5 52.835 5.5 52.8783 5.5C52.9216 5.5 52.9649 5.5 53.0082 5.5C53.0515 5.5 53.0948 5.5 53.1381 5.5C53.1814 5.5 53.2247 5.5 53.268 5.5C53.3113 5.5 53.3546 5.5 53.3979 5.5C53.4412 5.5 53.4845 5.5 53.5277 5.5C53.571 5.5 53.6143 5.5 53.6576 5.5C53.7009 5.5 53.7442 5.5 53.7875 5.5C53.8308 5.5 53.8741 5.5 53.9174 5.5C53.9607 5.5 54.004 5.5 54.0473 5.5C54.0906 5.5 54.1339 5.5 54.1772 5.5C54.2205 5.5 54.2638 5.5 54.3071 5.5C54.3504 5.5 54.3937 5.5 54.437 5.5C54.4803 5.5 54.5236 5.5 54.5669 5.5C54.6102 5.5 54.6535 5.5 54.6968 5.5C54.7401 5.5 54.7834 5.5 54.8267 5.5C54.87 5.5 54.9133 5.5 54.9566 5.5C54.9999 5.5 55.0431 5.5 55.0864 5.5C55.1297 5.5 55.173 5.5 55.2163 5.5C55.2596 5.5 55.3029 5.5 55.3462 5.5C55.3895 5.5 55.4328 5.5 55.4761 5.5C55.5194 5.5 55.5627 5.5 55.606 5.5C55.6493 5.5 55.6926 5.5 55.7359 5.5C55.7792 5.5 55.8225 5.5 55.8658 5.5C55.9091 5.5 55.9524 5.5 55.9957 5.5C56.039 5.5 56.0823 5.5 56.1256 5.5C56.1689 5.5 56.2122 5.5 56.2555 5.5C56.2988 5.5 56.3421 5.5 56.3854 5.5C56.4287 5.5 56.472 5.5 56.5153 5.5C56.5585 5.5 56.6018 5.5 56.6451 5.5C56.6884 5.5 56.7317 5.5 56.775 5.5C56.8183 5.5 56.8616 5.5 56.9049 5.5C56.9482 5.5 56.9915 5.5 57.0348 5.5C57.0781 5.5 57.1214 5.5 57.1647 5.5C57.208 5.5 57.2513 5.5 57.2946 5.5C57.3379 5.5 57.3812 5.5 57.4245 5.5C57.4678 5.5 57.5111 5.5 57.5544 5.5C57.5977 5.5 57.641 5.5 57.6843 5.5C57.7276 5.5 57.7709 5.5 57.8142 5.5C57.8575 5.5 57.9008 5.5 57.9441 5.5C57.9874 5.5 58.0307 5.5 58.0739 5.5C58.1172 5.5 58.1605 5.5 58.2038 5.5C58.2471 5.5 58.2904 5.5 58.3337 5.5C58.377 5.5 58.4203 5.5 58.4636 5.5C58.5069 5.5 58.5502 5.5 58.5935 5.5C58.6368 5.5 58.6801 5.5 58.7234 5.5C58.7667 5.5 58.81 5.5 58.8533 5.5C58.8966 5.5 58.9399 5.5 58.9832 5.5C59.0265 5.5 59.0698 5.5 59.1131 5.5C59.1564 5.5 59.1997 5.5 59.243 5.5C59.2863 5.5 59.3296 5.5 59.3729 5.5C59.4162 5.5 59.4595 5.5 59.5028 5.5C59.5461 5.5 59.5893 5.5 59.6326 5.5C59.6759 5.5 59.7192 5.5 59.7625 5.5C59.8058 5.5 59.8491 5.5 59.8924 5.5C59.9357 5.5 59.979 5.5 60.0223 5.5C60.0656 5.5 60.1089 5.5 60.1522 5.5C60.1955 5.5 60.2388 5.5 60.2821 5.5C60.3254 5.5 60.3687 5.5 60.412 5.5C60.4553 5.5 60.4986 5.5 60.5419 5.5C60.5852 5.5 60.6285 5.5 60.6718 5.5C60.7151 5.5 60.7584 5.5 60.8017 5.5C60.845 5.5 60.8883 5.5 60.9316 5.5C60.9749 5.5 61.0182 5.5 61.0615 5.5C61.1047 5.5 61.148 5.5 61.1913 5.5C61.2346 5.5 61.2779 5.5 61.3212 5.5C61.3645 5.5 61.4078 5.5 61.4511 5.5C61.4944 5.5 61.5377 5.5 61.581 5.5C61.6243 5.5 61.6676 5.5 61.7109 5.5C61.7542 5.5 61.7975 5.5 61.8408 5.5C61.8841 5.5 61.9274 5.5 61.9707 5.5C62.014 5.5 62.0573 5.5 62.1006 5.5C62.1439 5.5 62.1872 5.5 62.2305 5.5C62.2738 5.5 62.3171 5.5 62.3604 5.5C62.4037 5.5 62.447 5.5 62.4903 5.5C62.5336 5.5 62.5768 5.5 62.6201 5.5C62.6634 5.5 62.7067 5.5 62.75 5.5C62.7933 5.5 62.8366 5.5 62.8799 5.5C62.9232 5.5 62.9665 5.5 63.0098 5.5C63.0531 5.5 63.0964 5.5 63.1397 5.5C63.183 5.5 63.2263 5.5 63.2696 5.5C63.3129 5.5 63.3562 5.5 63.3995 5.5C63.4428 5.5 63.4861 5.5 63.5294 5.5C63.5727 5.5 63.616 5.5 63.6593 5.5C63.7026 5.5 63.7459 5.5 63.7892 5.5C63.8325 5.5 63.8758 5.5 63.9191 5.5C63.9624 5.5 64.0057 5.5 64.049 5.5C64.0922 5.5 64.1355 5.5 64.1788 5.5C64.2221 5.5 64.2654 5.5 64.3087 5.5C64.352 5.5 64.3953 5.5 64.4386 5.5C64.4819 5.5 64.5252 5.5 64.5685 5.5C64.6118 5.5 64.6551 5.5 64.6984 5.5C64.7417 5.5 64.785 5.5 64.8283 5.5C64.8716 5.5 64.9149 5.5 64.9582 5.5C65.0015 5.5 65.0448 5.5 65.0881 5.5C65.1314 5.5 65.1747 5.5 65.218 5.5C65.2613 5.5 65.3046 5.5 65.3479 5.5C65.3912 5.5 65.4345 5.5 65.4778 5.5C65.5211 5.5 65.5644 5.5 65.6076 5.5C65.6509 5.5 65.6942 5.5 65.7375 5.5C65.7808 5.5 65.8241 5.5 65.8674 5.5C65.9107 5.5 65.954 5.5 65.9973 5.5C66.0406 5.5 66.0839 5.5 66.1272 5.5C66.1705 5.5 66.2138 5.5 66.2571 5.5C66.3004 5.5 66.3437 5.5 66.387 5.5C66.4303 5.5 66.4736 5.5 66.5169 5.5C66.5602 5.5 66.6035 5.5 66.6468 5.5C66.6901 5.5 66.7334 5.5 66.7767 5.5C66.82 5.5 66.8633 5.5 66.9066 5.5C66.9499 5.5 66.9932 5.5 67.0365 5.5C67.0798 5.5 67.123 5.5 67.1663 5.5C67.2096 5.5 67.2529 5.5 67.2962 5.5C67.3395 5.5 67.3828 5.5 67.4261 5.5C67.4694 5.5 67.5127 5.5 67.556 5.5C67.5993 5.5 67.6426 5.5 67.6859 5.5C67.7292 5.5 67.7725 5.5 67.8158 5.5C67.8591 5.5 67.9024 5.5 67.9457 5.5C67.989 5.5 68.0323 5.5 68.0756 5.5C68.1189 5.5 68.1622 5.5 68.2055 5.5C68.2488 5.5 68.2921 5.5 68.3354 5.5C68.3787 5.5 68.422 5.5 68.4653 5.5C68.5086 5.5 68.5518 5.5 68.5951 5.5C68.6384 5.5 68.6817 5.5 68.725 5.5C68.7683 5.5 68.8116 5.5 68.8549 5.5C68.8982 5.5 68.9415 5.5 68.9848 5.5C69.0281 5.5 69.0714 5.5 69.1147 5.5C69.158 5.5 69.2013 5.5 69.2446 5.5C69.2879 5.5 69.3312 5.5 69.3745 5.5C69.4178 5.5 69.4611 5.5 69.5044 5.5V0.5C69.4611 0.5 69.4178 0.5 69.3745 0.5C69.3312 0.5 69.2879 0.5 69.2446 0.5C69.2013 0.5 69.158 0.5 69.1147 0.5C69.0714 0.5 69.0281 0.5 68.9848 0.5C68.9415 0.5 68.8982 0.5 68.8549 0.5C68.8116 0.5 68.7683 0.5 68.725 0.5C68.6817 0.5 68.6384 0.5 68.5951 0.5C68.5518 0.5 68.5086 0.5 68.4653 0.5C68.422 0.5 68.3787 0.5 68.3354 0.5C68.2921 0.5 68.2488 0.5 68.2055 0.5C68.1622 0.5 68.1189 0.5 68.0756 0.5C68.0323 0.5 67.989 0.5 67.9457 0.5C67.9024 0.5 67.8591 0.5 67.8158 0.5C67.7725 0.5 67.7292 0.5 67.6859 0.5C67.6426 0.5 67.5993 0.5 67.556 0.5C67.5127 0.5 67.4694 0.5 67.4261 0.5C67.3828 0.5 67.3395 0.5 67.2962 0.5C67.2529 0.5 67.2096 0.5 67.1663 0.5C67.123 0.5 67.0798 0.5 67.0365 0.5C66.9932 0.5 66.9499 0.5 66.9066 0.5C66.8633 0.5 66.82 0.5 66.7767 0.5C66.7334 0.5 66.6901 0.5 66.6468 0.5C66.6035 0.5 66.5602 0.5 66.5169 0.5C66.4736 0.5 66.4303 0.5 66.387 0.5C66.3437 0.5 66.3004 0.5 66.2571 0.5C66.2138 0.5 66.1705 0.5 66.1272 0.5C66.0839 0.5 66.0406 0.5 65.9973 0.5C65.954 0.5 65.9107 0.5 65.8674 0.5C65.8241 0.5 65.7808 0.5 65.7375 0.5C65.6942 0.5 65.6509 0.5 65.6076 0.5C65.5644 0.5 65.5211 0.5 65.4778 0.5C65.4345 0.5 65.3912 0.5 65.3479 0.5C65.3046 0.5 65.2613 0.5 65.218 0.5C65.1747 0.5 65.1314 0.5 65.0881 0.5C65.0448 0.5 65.0015 0.5 64.9582 0.5C64.9149 0.5 64.8716 0.5 64.8283 0.5C64.785 0.5 64.7417 0.5 64.6984 0.5C64.6551 0.5 64.6118 0.5 64.5685 0.5C64.5252 0.5 64.4819 0.5 64.4386 0.5C64.3953 0.5 64.352 0.5 64.3087 0.5C64.2654 0.5 64.2221 0.5 64.1788 0.5C64.1355 0.5 64.0922 0.5 64.049 0.5C64.0057 0.5 63.9624 0.5 63.9191 0.5C63.8758 0.5 63.8325 0.5 63.7892 0.5C63.7459 0.5 63.7026 0.5 63.6593 0.5C63.616 0.5 63.5727 0.5 63.5294 0.5C63.4861 0.5 63.4428 0.5 63.3995 0.5C63.3562 0.5 63.3129 0.5 63.2696 0.5C63.2263 0.5 63.183 0.5 63.1397 0.5C63.0964 0.5 63.0531 0.5 63.0098 0.5C62.9665 0.5 62.9232 0.5 62.8799 0.5C62.8366 0.5 62.7933 0.5 62.75 0.5C62.7067 0.5 62.6634 0.5 62.6201 0.5C62.5768 0.5 62.5336 0.5 62.4903 0.5C62.447 0.5 62.4037 0.5 62.3604 0.5C62.3171 0.5 62.2738 0.5 62.2305 0.5C62.1872 0.5 62.1439 0.5 62.1006 0.5C62.0573 0.5 62.014 0.5 61.9707 0.5C61.9274 0.5 61.8841 0.5 61.8408 0.5C61.7975 0.5 61.7542 0.5 61.7109 0.5C61.6676 0.5 61.6243 0.5 61.581 0.5C61.5377 0.5 61.4944 0.5 61.4511 0.5C61.4078 0.5 61.3645 0.5 61.3212 0.5C61.2779 0.5 61.2346 0.5 61.1913 0.5C61.148 0.5 61.1047 0.5 61.0615 0.5C61.0182 0.5 60.9749 0.5 60.9316 0.5C60.8883 0.5 60.845 0.5 60.8017 0.5C60.7584 0.5 60.7151 0.5 60.6718 0.5C60.6285 0.5 60.5852 0.5 60.5419 0.5C60.4986 0.5 60.4553 0.5 60.412 0.5C60.3687 0.5 60.3254 0.5 60.2821 0.5C60.2388 0.5 60.1955 0.5 60.1522 0.5C60.1089 0.5 60.0656 0.5 60.0223 0.5C59.979 0.5 59.9357 0.5 59.8924 0.5C59.8491 0.5 59.8058 0.5 59.7625 0.5C59.7192 0.5 59.6759 0.5 59.6326 0.5C59.5893 0.5 59.5461 0.5 59.5028 0.5C59.4595 0.5 59.4162 0.5 59.3729 0.5C59.3296 0.5 59.2863 0.5 59.243 0.5C59.1997 0.5 59.1564 0.5 59.1131 0.5C59.0698 0.5 59.0265 0.5 58.9832 0.5C58.9399 0.5 58.8966 0.5 58.8533 0.5C58.81 0.5 58.7667 0.5 58.7234 0.5C58.6801 0.5 58.6368 0.5 58.5935 0.5C58.5502 0.5 58.5069 0.5 58.4636 0.5C58.4203 0.5 58.377 0.5 58.3337 0.5C58.2904 0.5 58.2471 0.5 58.2038 0.5C58.1605 0.5 58.1172 0.5 58.0739 0.5C58.0307 0.5 57.9874 0.5 57.9441 0.5C57.9008 0.5 57.8575 0.5 57.8142 0.5C57.7709 0.5 57.7276 0.5 57.6843 0.5C57.641 0.5 57.5977 0.5 57.5544 0.5C57.5111 0.5 57.4678 0.5 57.4245 0.5C57.3812 0.5 57.3379 0.5 57.2946 0.5C57.2513 0.5 57.208 0.5 57.1647 0.5C57.1214 0.5 57.0781 0.5 57.0348 0.5C56.9915 0.5 56.9482 0.5 56.9049 0.5C56.8616 0.5 56.8183 0.5 56.775 0.5C56.7317 0.5 56.6884 0.5 56.6451 0.5C56.6018 0.5 56.5585 0.5 56.5153 0.5C56.472 0.5 56.4287 0.5 56.3854 0.5C56.3421 0.5 56.2988 0.5 56.2555 0.5C56.2122 0.5 56.1689 0.5 56.1256 0.5C56.0823 0.5 56.039 0.5 55.9957 0.5C55.9524 0.5 55.9091 0.5 55.8658 0.5C55.8225 0.5 55.7792 0.5 55.7359 0.5C55.6926 0.5 55.6493 0.5 55.606 0.5C55.5627 0.5 55.5194 0.5 55.4761 0.5C55.4328 0.5 55.3895 0.5 55.3462 0.5C55.3029 0.5 55.2596 0.5 55.2163 0.5C55.173 0.5 55.1297 0.5 55.0864 0.5C55.0431 0.5 54.9999 0.5 54.9566 0.5C54.9133 0.5 54.87 0.5 54.8267 0.5C54.7834 0.5 54.7401 0.5 54.6968 0.5C54.6535 0.5 54.6102 0.5 54.5669 0.5C54.5236 0.5 54.4803 0.5 54.437 0.5C54.3937 0.5 54.3504 0.5 54.3071 0.5C54.2638 0.5 54.2205 0.5 54.1772 0.5C54.1339 0.5 54.0906 0.5 54.0473 0.5C54.004 0.5 53.9607 0.5 53.9174 0.5C53.8741 0.5 53.8308 0.5 53.7875 0.5C53.7442 0.5 53.7009 0.5 53.6576 0.5C53.6143 0.5 53.571 0.5 53.5277 0.5C53.4845 0.5 53.4412 0.5 53.3979 0.5C53.3546 0.5 53.3113 0.5 53.268 0.5C53.2247 0.5 53.1814 0.5 53.1381 0.5C53.0948 0.5 53.0515 0.5 53.0082 0.5C52.9649 0.5 52.9216 0.5 52.8783 0.5C52.835 0.5 52.7917 0.5 52.7484 0.5C52.7051 0.5 52.6618 0.5 52.6185 0.5C52.5752 0.5 52.5319 0.5 52.4886 0.5C52.4453 0.5 52.402 0.5 52.3587 0.5C52.3154 0.5 52.2721 0.5 52.2288 0.5C52.1855 0.5 52.1422 0.5 52.0989 0.5C52.0556 0.5 52.0123 0.5 51.9691 0.5C51.9258 0.5 51.8825 0.5 51.8392 0.5C51.7959 0.5 51.7526 0.5 51.7093 0.5C51.666 0.5 51.6227 0.5 51.5794 0.5C51.5361 0.5 51.4928 0.5 51.4495 0.5C51.4062 0.5 51.3629 0.5 51.3196 0.5C51.2763 0.5 51.233 0.5 51.1897 0.5C51.1464 0.5 51.1031 0.5 51.0598 0.5C51.0165 0.5 50.9732 0.5 50.9299 0.5C50.8866 0.5 50.8433 0.5 50.8 0.5C50.7567 0.5 50.7134 0.5 50.6701 0.5C50.6268 0.5 50.5835 0.5 50.5402 0.5C50.4969 0.5 50.4537 0.5 50.4104 0.5C50.3671 0.5 50.3238 0.5 50.2805 0.5C50.2372 0.5 50.1939 0.5 50.1506 0.5C50.1073 0.5 50.064 0.5 50.0207 0.5C49.9774 0.5 49.9341 0.5 49.8908 0.5C49.8475 0.5 49.8042 0.5 49.7609 0.5C49.7176 0.5 49.6743 0.5 49.631 0.5C49.5877 0.5 49.5444 0.5 49.5011 0.5C49.4578 0.5 49.4145 0.5 49.3712 0.5C49.3279 0.5 49.2846 0.5 49.2413 0.5C49.198 0.5 49.1547 0.5 49.1114 0.5C49.0681 0.5 49.0248 0.5 48.9816 0.5C48.9383 0.5 48.895 0.5 48.8517 0.5C48.8084 0.5 48.7651 0.5 48.7218 0.5C48.6785 0.5 48.6352 0.5 48.5919 0.5C48.5486 0.5 48.5053 0.5 48.462 0.5C48.4187 0.5 48.3754 0.5 48.3321 0.5C48.2888 0.5 48.2455 0.5 48.2022 0.5C48.1589 0.5 48.1156 0.5 48.0723 0.5C48.029 0.5 47.9857 0.5 47.9424 0.5C47.8991 0.5 47.8558 0.5 47.8125 0.5C47.7692 0.5 47.7259 0.5 47.6826 0.5C47.6393 0.5 47.596 0.5 47.5527 0.5C47.5094 0.5 47.4662 0.5 47.4229 0.5C47.3796 0.5 47.3363 0.5 47.293 0.5C47.2497 0.5 47.2064 0.5 47.1631 0.5C47.1198 0.5 47.0765 0.5 47.0332 0.5C46.9899 0.5 46.9466 0.5 46.9033 0.5C46.86 0.5 46.8167 0.5 46.7734 0.5C46.7301 0.5 46.6868 0.5 46.6435 0.5C46.6002 0.5 46.5569 0.5 46.5136 0.5C46.4703 0.5 46.427 0.5 46.3837 0.5C46.3404 0.5 46.2971 0.5 46.2538 0.5C46.2105 0.5 46.1672 0.5 46.1239 0.5C46.0806 0.5 46.0373 0.5 45.994 0.5C45.9508 0.5 45.9075 0.5 45.8642 0.5C45.8209 0.5 45.7776 0.5 45.7343 0.5C45.691 0.5 45.6477 0.5 45.6044 0.5C45.5611 0.5 45.5178 0.5 45.4745 0.5C45.4312 0.5 45.3879 0.5 45.3446 0.5C45.3013 0.5 45.258 0.5 45.2147 0.5C45.1714 0.5 45.1281 0.5 45.0848 0.5C45.0415 0.5 44.9982 0.5 44.9549 0.5C44.9116 0.5 44.8683 0.5 44.825 0.5C44.7817 0.5 44.7384 0.5 44.6951 0.5C44.6518 0.5 44.6085 0.5 44.5652 0.5C44.5219 0.5 44.4786 0.5 44.4354 0.5C44.3921 0.5 44.3488 0.5 44.3055 0.5C44.2622 0.5 44.2189 0.5 44.1756 0.5C44.1323 0.5 44.089 0.5 44.0457 0.5C44.0024 0.5 43.9591 0.5 43.9158 0.5C43.8725 0.5 43.8292 0.5 43.7859 0.5C43.7426 0.5 43.6993 0.5 43.656 0.5C43.6127 0.5 43.5694 0.5 43.5261 0.5C43.4828 0.5 43.4395 0.5 43.3962 0.5C43.3529 0.5 43.3096 0.5 43.2663 0.5C43.223 0.5 43.1797 0.5 43.1364 0.5C43.0931 0.5 43.0498 0.5 43.0065 0.5C42.9632 0.5 42.92 0.5 42.8767 0.5C42.8334 0.5 42.7901 0.5 42.7468 0.5C42.7035 0.5 42.6602 0.5 42.6169 0.5C42.5736 0.5 42.5303 0.5 42.487 0.5C42.4437 0.5 42.4004 0.5 42.3571 0.5C42.3138 0.5 42.2705 0.5 42.2272 0.5C42.1839 0.5 42.1406 0.5 42.0973 0.5C42.054 0.5 42.0107 0.5 41.9674 0.5C41.9241 0.5 41.8808 0.5 41.8375 0.5C41.7942 0.5 41.7509 0.5 41.7076 0.5C41.6643 0.5 41.621 0.5 41.5777 0.5C41.5344 0.5 41.4911 0.5 41.4478 0.5C41.4046 0.5 41.3613 0.5 41.318 0.5C41.2747 0.5 41.2314 0.5 41.1881 0.5C41.1448 0.5 41.1015 0.5 41.0582 0.5C41.0149 0.5 40.9716 0.5 40.9283 0.5C40.885 0.5 40.8417 0.5 40.7984 0.5C40.7551 0.5 40.7118 0.5 40.6685 0.5C40.6252 0.5 40.5819 0.5 40.5386 0.5C40.4953 0.5 40.452 0.5 40.4087 0.5C40.3654 0.5 40.3221 0.5 40.2788 0.5C40.2355 0.5 40.1922 0.5 40.1489 0.5C40.1056 0.5 40.0623 0.5 40.019 0.5C39.9757 0.5 39.9324 0.5 39.8892 0.5C39.8459 0.5 39.8026 0.5 39.7593 0.5C39.716 0.5 39.6727 0.5 39.6294 0.5C39.5861 0.5 39.5428 0.5 39.4995 0.5C39.4562 0.5 39.4129 0.5 39.3696 0.5C39.3263 0.5 39.283 0.5 39.2397 0.5C39.1964 0.5 39.1531 0.5 39.1098 0.5C39.0665 0.5 39.0232 0.5 38.9799 0.5C38.9366 0.5 38.8933 0.5 38.85 0.5C38.8067 0.5 38.7634 0.5 38.7201 0.5C38.6768 0.5 38.6335 0.5 38.5902 0.5C38.5469 0.5 38.5036 0.5 38.4604 0.5C38.417 0.5 38.3738 0.5 38.3305 0.5C38.2872 0.5 38.2439 0.5 38.2006 0.5C38.1573 0.5 38.114 0.5 38.0707 0.5C38.0274 0.5 37.9841 0.5 37.9408 0.5C37.8975 0.5 37.8542 0.5 37.8109 0.5C37.7676 0.5 37.7243 0.5 37.681 0.5C37.6377 0.5 37.5944 0.5 37.5511 0.5C37.5078 0.5 37.4645 0.5 37.4212 0.5C37.3779 0.5 37.3346 0.5 37.2913 0.5C37.248 0.5 37.2047 0.5 37.1614 0.5C37.1181 0.5 37.0748 0.5 37.0315 0.5C36.9882 0.5 36.945 0.5 36.9017 0.5C36.8584 0.5 36.8151 0.5 36.7718 0.5C36.7285 0.5 36.6852 0.5 36.6419 0.5C36.5986 0.5 36.5553 0.5 36.512 0.5C36.4687 0.5 36.4254 0.5 36.3821 0.5C36.3388 0.5 36.2955 0.5 36.2522 0.5C36.2089 0.5 36.1656 0.5 36.1223 0.5C36.079 0.5 36.0357 0.5 35.9924 0.5C35.9491 0.5 35.9058 0.5 35.8625 0.5C35.8192 0.5 35.7759 0.5 35.7326 0.5C35.6893 0.5 35.646 0.5 35.6027 0.5C35.5594 0.5 35.5161 0.5 35.4728 0.5C35.4296 0.5 35.3863 0.5 35.343 0.5C35.2997 0.5 35.2564 0.5 35.2131 0.5C35.1698 0.5 35.1265 0.5 35.0832 0.5C35.0399 0.5 34.9966 0.5 34.9533 0.5C34.91 0.5 34.8667 0.5 34.8234 0.5C34.7801 0.5 34.7368 0.5 34.6935 0.5C34.6502 0.5 34.6069 0.5 34.5636 0.5C34.5203 0.5 34.477 0.5 34.4337 0.5C34.3904 0.5 34.3471 0.5 34.3038 0.5C34.2605 0.5 34.2172 0.5 34.1739 0.5C34.1306 0.5 34.0873 0.5 34.044 0.5C34.0007 0.5 33.9574 0.5 33.9142 0.5C33.8709 0.5 33.8276 0.5 33.7843 0.5C33.741 0.5 33.6977 0.5 33.6544 0.5C33.6111 0.5 33.5678 0.5 33.5245 0.5C33.4812 0.5 33.4379 0.5 33.3946 0.5C33.3513 0.5 33.308 0.5 33.2647 0.5C33.2214 0.5 33.1781 0.5 33.1348 0.5C33.0915 0.5 33.0482 0.5 33.0049 0.5C32.9616 0.5 32.9183 0.5 32.875 0.5C32.8317 0.5 32.7884 0.5 32.7451 0.5C32.7018 0.5 32.6585 0.5 32.6152 0.5C32.5719 0.5 32.5286 0.5 32.4853 0.5C32.442 0.5 32.3988 0.5 32.3555 0.5C32.3122 0.5 32.2689 0.5 32.2256 0.5C32.1823 0.5 32.139 0.5 32.0957 0.5C32.0524 0.5 32.0091 0.5 31.9658 0.5C31.9225 0.5 31.8792 0.5 31.8359 0.5C31.7926 0.5 31.7493 0.5 31.706 0.5C31.6627 0.5 31.6194 0.5 31.5761 0.5C31.5328 0.5 31.4895 0.5 31.4462 0.5C31.4029 0.5 31.3596 0.5 31.3163 0.5C31.273 0.5 31.2297 0.5 31.1864 0.5C31.1431 0.5 31.0998 0.5 31.0565 0.5C31.0132 0.5 30.9699 0.5 30.9266 0.5C30.8834 0.5 30.8401 0.5 30.7968 0.5C30.7535 0.5 30.7102 0.5 30.6669 0.5C30.6236 0.5 30.5803 0.5 30.537 0.5C30.4937 0.5 30.4504 0.5 30.4071 0.5C30.3638 0.5 30.3205 0.5 30.2772 0.5C30.2339 0.5 30.1906 0.5 30.1473 0.5C30.104 0.5 30.0607 0.5 30.0174 0.5C29.9741 0.5 29.9308 0.5 29.8875 0.5C29.8442 0.5 29.8009 0.5 29.7576 0.5C29.7143 0.5 29.671 0.5 29.6277 0.5C29.5844 0.5 29.5411 0.5 29.4978 0.5C29.4545 0.5 29.4112 0.5 29.368 0.5C29.3247 0.5 29.2814 0.5 29.2381 0.5C29.1948 0.5 29.1515 0.5 29.1082 0.5C29.0649 0.5 29.0216 0.5 28.9783 0.5C28.935 0.5 28.8917 0.5 28.8484 0.5C28.8051 0.5 28.7618 0.5 28.7185 0.5C28.6752 0.5 28.6319 0.5 28.5886 0.5C28.5453 0.5 28.502 0.5 28.4587 0.5C28.4154 0.5 28.3721 0.5 28.3288 0.5C28.2855 0.5 28.2422 0.5 28.1989 0.5C28.1556 0.5 28.1123 0.5 28.069 0.5C28.0257 0.5 27.9824 0.5 27.9391 0.5C27.8958 0.5 27.8526 0.5 27.8093 0.5C27.766 0.5 27.7227 0.5 27.6794 0.5C27.6361 0.5 27.5928 0.5 27.5495 0.5C27.5062 0.5 27.4629 0.5 27.4196 0.5C27.3763 0.5 27.333 0.5 27.2897 0.5C27.2464 0.5 27.2031 0.5 27.1598 0.5C27.1165 0.5 27.0732 0.5 27.0299 0.5C26.9866 0.5 26.9433 0.5 26.9 0.5C26.8567 0.5 26.8134 0.5 26.7701 0.5C26.7268 0.5 26.6835 0.5 26.6402 0.5C26.5969 0.5 26.5536 0.5 26.5103 0.5C26.467 0.5 26.4237 0.5 26.3804 0.5C26.3372 0.5 26.2939 0.5 26.2506 0.5C26.2073 0.5 26.164 0.5 26.1207 0.5C26.0774 0.5 26.0341 0.5 25.9908 0.5C25.9475 0.5 25.9042 0.5 25.8609 0.5C25.8176 0.5 25.7743 0.5 25.731 0.5C25.6877 0.5 25.6444 0.5 25.6011 0.5C25.5578 0.5 25.5145 0.5 25.4712 0.5C25.4279 0.5 25.3846 0.5 25.3413 0.5C25.298 0.5 25.2547 0.5 25.2114 0.5C25.1681 0.5 25.1248 0.5 25.0815 0.5C25.0382 0.5 24.9949 0.5 24.9516 0.5C24.9083 0.5 24.865 0.5 24.8218 0.5C24.7785 0.5 24.7352 0.5 24.6919 0.5C24.6486 0.5 24.6053 0.5 24.562 0.5C24.5187 0.5 24.4754 0.5 24.4321 0.5C24.3888 0.5 24.3455 0.5 24.3022 0.5C24.2589 0.5 24.2156 0.5 24.1723 0.5C24.129 0.5 24.0857 0.5 24.0424 0.5C23.9991 0.5 23.9558 0.5 23.9125 0.5C23.8692 0.5 23.8259 0.5 23.7826 0.5C23.7393 0.5 23.696 0.5 23.6527 0.5C23.6094 0.5 23.5661 0.5 23.5228 0.5C23.4795 0.5 23.4362 0.5 23.3929 0.5C23.3497 0.5 23.3064 0.5 23.2631 0.5C23.2198 0.5 23.1765 0.5 23.1332 0.5C23.0899 0.5 23.0466 0.5 23.0033 0.5C22.96 0.5 22.9167 0.5 22.8734 0.5C22.8301 0.5 22.7868 0.5 22.7435 0.5C22.7002 0.5 22.6569 0.5 22.6136 0.5C22.5703 0.5 22.527 0.5 22.4837 0.5C22.4404 0.5 22.3971 0.5 22.3538 0.5C22.3105 0.5 22.2672 0.5 22.2239 0.5C22.1806 0.5 22.1373 0.5 22.094 0.5C22.0507 0.5 22.0074 0.5 21.9641 0.5C21.9208 0.5 21.8775 0.5 21.8343 0.5C21.791 0.5 21.7477 0.5 21.7044 0.5C21.6611 0.5 21.6178 0.5 21.5745 0.5C21.5312 0.5 21.4879 0.5 21.4446 0.5C21.4013 0.5 21.358 0.5 21.3147 0.5C21.2714 0.5 21.2281 0.5 21.1848 0.5C21.1415 0.5 21.0982 0.5 21.0549 0.5C21.0116 0.5 20.9683 0.5 20.925 0.5C20.8817 0.5 20.8384 0.5 20.7951 0.5C20.7518 0.5 20.7085 0.5 20.6652 0.5C20.6219 0.5 20.5786 0.5 20.5353 0.5C20.492 0.5 20.4487 0.5 20.4054 0.5C20.3621 0.5 20.3189 0.5 20.2756 0.5C20.2323 0.5 20.189 0.5 20.1457 0.5C20.1024 0.5 20.0591 0.5 20.0158 0.5C19.9725 0.5 19.9292 0.5 19.8859 0.5C19.8426 0.5 19.7993 0.5 19.756 0.5C19.7127 0.5 19.6694 0.5 19.6261 0.5C19.5828 0.5 19.5395 0.5 19.4962 0.5C19.4529 0.5 19.4096 0.5 19.3663 0.5C19.323 0.5 19.2797 0.5 19.2364 0.5C19.1931 0.5 19.1498 0.5 19.1065 0.5C19.0632 0.5 19.0199 0.5 18.9766 0.5C18.9333 0.5 18.89 0.5 18.8467 0.5C18.8035 0.5 18.7602 0.5 18.7169 0.5C18.6736 0.5 18.6303 0.5 18.587 0.5C18.5437 0.5 18.5004 0.5 18.4571 0.5C18.4138 0.5 18.3705 0.5 18.3272 0.5C18.2839 0.5 18.2406 0.5 18.1973 0.5C18.154 0.5 18.1107 0.5 18.0674 0.5C18.0241 0.5 17.9808 0.5 17.9375 0.5C17.8942 0.5 17.8509 0.5 17.8076 0.5C17.7643 0.5 17.721 0.5 17.6777 0.5C17.6344 0.5 17.5911 0.5 17.5478 0.5C17.5045 0.5 17.4612 0.5 17.4179 0.5C17.3746 0.5 17.3313 0.5 17.2881 0.5C17.2448 0.5 17.2015 0.5 17.1582 0.5C17.1149 0.5 17.0716 0.5 17.0283 0.5C16.985 0.5 16.9417 0.5 16.8984 0.5C16.8551 0.5 16.8118 0.5 16.7685 0.5C16.7252 0.5 16.6819 0.5 16.6386 0.5C16.5953 0.5 16.552 0.5 16.5087 0.5C16.4654 0.5 16.4221 0.5 16.3788 0.5C16.3355 0.5 16.2922 0.5 16.2489 0.5C16.2056 0.5 16.1623 0.5 16.119 0.5C16.0757 0.5 16.0324 0.5 15.9891 0.5C15.9458 0.5 15.9025 0.5 15.8592 0.5C15.816 0.5 15.7727 0.5 15.7294 0.5C15.6861 0.5 15.6428 0.5 15.5995 0.5C15.5562 0.5 15.5129 0.5 15.4696 0.5C15.4263 0.5 15.383 0.5 15.3397 0.5C15.2964 0.5 15.2531 0.5 15.2098 0.5C15.1665 0.5 15.1232 0.5 15.0799 0.5C15.0366 0.5 14.9933 0.5 14.95 0.5C14.9067 0.5 14.8634 0.5 14.8201 0.5C14.7768 0.5 14.7335 0.5 14.6902 0.5C14.6469 0.5 14.6036 0.5 14.5603 0.5C14.517 0.5 14.4737 0.5 14.4304 0.5C14.3871 0.5 14.3438 0.5 14.3006 0.5C14.2573 0.5 14.214 0.5 14.1707 0.5C14.1274 0.5 14.0841 0.5 14.0408 0.5C13.9975 0.5 13.9542 0.5 13.9109 0.5C13.8676 0.5 13.8243 0.5 13.781 0.5C13.7377 0.5 13.6944 0.5 13.6511 0.5C13.6078 0.5 13.5645 0.5 13.5212 0.5C13.4779 0.5 13.4346 0.5 13.3913 0.5C13.348 0.5 13.3047 0.5 13.2614 0.5C13.2181 0.5 13.1748 0.5 13.1315 0.5C13.0882 0.5 13.0449 0.5 13.0016 0.5C12.9583 0.5 12.915 0.5 12.8717 0.5C12.8284 0.5 12.7852 0.5 12.7419 0.5C12.6986 0.5 12.6553 0.5 12.612 0.5C12.5687 0.5 12.5254 0.5 12.4821 0.5C12.4388 0.5 12.3955 0.5 12.3522 0.5C12.3089 0.5 12.2656 0.5 12.2223 0.5C12.179 0.5 12.1357 0.5 12.0924 0.5C12.0491 0.5 12.0058 0.5 11.9625 0.5C11.9192 0.5 11.8759 0.5 11.8326 0.5C11.7893 0.5 11.746 0.5 11.7027 0.5C11.6594 0.5 11.6161 0.5 11.5728 0.5C11.5295 0.5 11.4862 0.5 11.4429 0.5C11.3996 0.5 11.3563 0.5 11.313 0.5C11.2698 0.5 11.2265 0.5 11.1832 0.5C11.1399 0.5 11.0966 0.5 11.0533 0.5C11.01 0.5 10.9667 0.5 10.9234 0.5C10.8801 0.5 10.8368 0.5 10.7935 0.5C10.7502 0.5 10.7069 0.5 10.6636 0.5C10.6203 0.5 10.577 0.5 10.5337 0.5C10.4904 0.5 10.4471 0.5 10.4038 0.5C10.3605 0.5 10.3172 0.5 10.2739 0.5C10.2306 0.5 10.1873 0.5 10.144 0.5C10.1007 0.5 10.0574 0.5 10.0141 0.5C9.97084 0.5 9.92754 0.5 9.88424 0.5C9.84095 0.5 9.79765 0.5 9.75435 0.5C9.71106 0.5 9.66776 0.5 9.62446 0.5C9.58116 0.5 9.53787 0.5 9.49457 0.5C9.45127 0.5 9.40798 0.5 9.36468 0.5C9.32138 0.5 9.27808 0.5 9.23479 0.5C9.19149 0.5 9.14819 0.5 9.1049 0.5C9.0616 0.5 9.0183 0.5 8.975 0.5C8.93171 0.5 8.88841 0.5 8.84511 0.5C8.80182 0.5 8.75852 0.5 8.71522 0.5C8.67192 0.5 8.62863 0.5 8.58533 0.5C8.54203 0.5 8.49874 0.5 8.45544 0.5C8.41214 0.5 8.36884 0.5 8.32555 0.5C8.28225 0.5 8.23895 0.5 8.19566 0.5C8.15236 0.5 8.10906 0.5 8.06576 0.5C8.02247 0.5 7.97917 0.5 7.93587 0.5C7.89258 0.5 7.84928 0.5 7.80598 0.5C7.76268 0.5 7.71939 0.5 7.67609 0.5C7.63279 0.5 7.5895 0.5 7.5462 0.5C7.5029 0.5 7.4596 0.5 7.41631 0.5C7.37301 0.5 7.32971 0.5 7.28642 0.5C7.24312 0.5 7.19982 0.5 7.15652 0.5C7.11323 0.5 7.06993 0.5 7.02663 0.5C6.98334 0.5 6.94004 0.5 6.89674 0.5C6.85344 0.5 6.81015 0.5 6.76685 0.5C6.72355 0.5 6.68026 0.5 6.63696 0.5C6.59366 0.5 6.55036 0.5 6.50707 0.5C6.46377 0.5 6.42047 0.5 6.37718 0.5C6.33388 0.5 6.29058 0.5 6.24728 0.5C6.20399 0.5 6.16069 0.5 6.11739 0.5C6.0741 0.5 6.0308 0.5 5.9875 0.5C5.9442 0.5 5.90091 0.5 5.85761 0.5C5.81431 0.5 5.77102 0.5 5.72772 0.5C5.68442 0.5 5.64112 0.5 5.59783 0.5C5.55453 0.5 5.51123 0.5 5.46794 0.5C5.42464 0.5 5.38134 0.5 5.33804 0.5C5.29475 0.5 5.25145 0.5 5.20815 0.5C5.16486 0.5 5.12156 0.5 5.07826 0.5C5.03497 0.5 4.99167 0.5 4.94837 0.5C4.90507 0.5 4.86178 0.5 4.81848 0.5C4.77518 0.5 4.73189 0.5 4.68859 0.5C4.64529 0.5 4.60199 0.5 4.5587 0.5C4.5154 0.5 4.4721 0.5 4.42881 0.5C4.38551 0.5 4.34221 0.5 4.29891 0.5C4.25562 0.5 4.21232 0.5 4.16902 0.5C4.12573 0.5 4.08243 0.5 4.03913 0.5C3.99583 0.5 3.95254 0.5 3.90924 0.5C3.86594 0.5 3.82265 0.5 3.77935 0.5C3.73605 0.5 3.69275 0.5 3.64946 0.5C3.60616 0.5 3.56286 0.5 3.51957 0.5C3.47627 0.5 3.43297 0.5 3.38967 0.5C3.34638 0.5 3.30308 0.5 3.25978 0.5C3.21649 0.5 3.17319 0.5 3.12989 0.5C3.08659 0.5 3.0433 0.5 3 0.5V5.5ZM69.5044 5.5C72.0868 5.5 73.4819 5.78569 74.1333 6.0723C74.4274 6.20171 74.4071 6.26162 74.32 6.13872C74.2055 5.97709 74.1823 5.79653 74.187 5.7238C74.1884 5.70292 74.1807 5.83691 74.0129 6.15959C73.8504 6.47214 73.586 6.8694 73.1944 7.3503C72.4073 8.3169 71.2635 9.43202 69.8596 10.6493C67.0474 13.0878 63.5326 15.6501 60.475 17.9557C58.9749 19.087 57.5693 20.1688 56.4758 21.1093C55.9294 21.5792 55.4204 22.0482 55.0009 22.4979C54.6228 22.9032 54.1442 23.472 53.8593 24.141L58.4595 26.1C58.3907 26.2617 58.3724 26.2137 58.6571 25.9085C58.9004 25.6477 59.2567 25.3124 59.7361 24.9001C60.6944 24.0759 61.9832 23.0807 63.4855 21.9479C66.4327 19.7254 70.1548 17.0113 73.1352 14.427C74.6276 13.1329 76.019 11.8 77.0716 10.5074C78.0486 9.30752 79.0661 7.75106 79.1765 6.04727C79.2382 5.09619 79.0144 4.11577 78.4 3.24841C77.813 2.41979 76.9933 1.86811 76.1469 1.49571C74.5174 0.778735 72.2669 0.5 69.5044 0.5V5.5ZM53.8593 24.141C53.5047 24.9737 53.3408 25.9205 53.5503 26.9031C53.759 27.8822 54.2868 28.6543 54.8961 29.2315C56.0274 30.3029 57.6566 30.9111 59.1994 31.307C62.3904 32.1258 66.8469 32.4198 71.3553 32.4852C75.9201 32.5515 80.7568 32.3837 84.8055 32.2017C88.9335 32.0162 92.0982 31.8253 93.5474 31.8253V26.8253C91.9495 26.8253 88.5249 27.0296 84.5811 27.2068C80.558 27.3875 75.8405 27.5498 71.4279 27.4858C66.9589 27.4209 63.0151 27.1241 60.4421 26.4639C59.103 26.1203 58.5093 25.7669 58.3343 25.6012C58.2906 25.5597 58.3943 25.6444 58.4404 25.8605C58.4872 26.08 58.422 26.1882 58.4595 26.1L53.8593 24.141ZM93.5474 31.8253C93.6087 31.8253 93.6699 31.8253 93.7312 31.8253C93.7924 31.8253 93.8537 31.8253 93.9149 31.8253C93.9762 31.8253 94.0374 31.8253 94.0987 31.8253C94.1599 31.8253 94.2212 31.8253 94.2824 31.8253C94.3437 31.8253 94.4049 31.8253 94.4662 31.8253C94.5274 31.8253 94.5886 31.8253 94.6499 31.8253C94.7111 31.8253 94.7724 31.8253 94.8336 31.8253C94.8949 31.8253 94.9561 31.8253 95.0174 31.8253C95.0786 31.8253 95.1399 31.8253 95.2011 31.8253C95.2624 31.8253 95.3236 31.8253 95.3849 31.8253C95.4461 31.8253 95.5074 31.8253 95.5686 31.8253C95.6299 31.8253 95.6911 31.8253 95.7524 31.8253C95.8136 31.8253 95.8749 31.8253 95.9361 31.8253C95.9973 31.8253 96.0586 31.8253 96.1198 31.8253C96.1811 31.8253 96.2423 31.8253 96.3036 31.8253C96.3648 31.8253 96.4261 31.8253 96.4873 31.8253C96.5486 31.8253 96.6098 31.8253 96.6711 31.8253C96.7323 31.8253 96.7936 31.8253 96.8548 31.8253C96.9161 31.8253 96.9773 31.8253 97.0386 31.8253C97.0998 31.8253 97.1611 31.8253 97.2223 31.8253C97.2836 31.8253 97.3448 31.8253 97.4061 31.8253C97.4673 31.8253 97.5285 31.8253 97.5898 31.8253C97.651 31.8253 97.7123 31.8253 97.7735 31.8253C97.8348 31.8253 97.896 31.8253 97.9573 31.8253C98.0185 31.8253 98.0798 31.8253 98.141 31.8253C98.2023 31.8253 98.2635 31.8253 98.3248 31.8253C98.386 31.8253 98.4473 31.8253 98.5085 31.8253C98.5698 31.8253 98.631 31.8253 98.6923 31.8253C98.7535 31.8253 98.8148 31.8253 98.876 31.8253C98.9372 31.8253 98.9985 31.8253 99.0597 31.8253C99.121 31.8253 99.1822 31.8253 99.2435 31.8253C99.3047 31.8253 99.366 31.8253 99.4272 31.8253C99.4885 31.8253 99.5497 31.8253 99.611 31.8253C99.6722 31.8253 99.7335 31.8253 99.7947 31.8253C99.856 31.8253 99.9172 31.8253 99.9785 31.8253C100.04 31.8253 100.101 31.8253 100.162 31.8253C100.223 31.8253 100.285 31.8253 100.346 31.8253C100.407 31.8253 100.468 31.8253 100.53 31.8253C100.591 31.8253 100.652 31.8253 100.713 31.8253C100.775 31.8253 100.836 31.8253 100.897 31.8253C100.958 31.8253 101.02 31.8253 101.081 31.8253C101.142 31.8253 101.203 31.8253 101.265 31.8253C101.326 31.8253 101.387 31.8253 101.448 31.8253C101.51 31.8253 101.571 31.8253 101.632 31.8253C101.693 31.8253 101.755 31.8253 101.816 31.8253C101.877 31.8253 101.938 31.8253 102 31.8253C102.061 31.8253 102.122 31.8253 102.183 31.8253C102.245 31.8253 102.306 31.8253 102.367 31.8253C102.428 31.8253 102.49 31.8253 102.551 31.8253C102.612 31.8253 102.673 31.8253 102.735 31.8253C102.796 31.8253 102.857 31.8253 102.918 31.8253C102.98 31.8253 103.041 31.8253 103.102 31.8253C103.163 31.8253 103.225 31.8253 103.286 31.8253C103.347 31.8253 103.408 31.8253 103.47 31.8253C103.531 31.8253 103.592 31.8253 103.653 31.8253C103.715 31.8253 103.776 31.8253 103.837 31.8253C103.898 31.8253 103.96 31.8253 104.021 31.8253C104.082 31.8253 104.143 31.8253 104.205 31.8253C104.266 31.8253 104.327 31.8253 104.388 31.8253C104.45 31.8253 104.511 31.8253 104.572 31.8253C104.633 31.8253 104.695 31.8253 104.756 31.8253C104.817 31.8253 104.878 31.8253 104.94 31.8253C105.001 31.8253 105.062 31.8253 105.123 31.8253C105.185 31.8253 105.246 31.8253 105.307 31.8253C105.368 31.8253 105.43 31.8253 105.491 31.8253C105.552 31.8253 105.613 31.8253 105.675 31.8253C105.736 31.8253 105.797 31.8253 105.858 31.8253C105.92 31.8253 105.981 31.8253 106.042 31.8253C106.103 31.8253 106.164 31.8253 106.226 31.8253C106.287 31.8253 106.348 31.8253 106.409 31.8253C106.471 31.8253 106.532 31.8253 106.593 31.8253C106.654 31.8253 106.716 31.8253 106.777 31.8253C106.838 31.8253 106.899 31.8253 106.961 31.8253C107.022 31.8253 107.083 31.8253 107.144 31.8253C107.206 31.8253 107.267 31.8253 107.328 31.8253C107.389 31.8253 107.451 31.8253 107.512 31.8253C107.573 31.8253 107.634 31.8253 107.696 31.8253C107.757 31.8253 107.818 31.8253 107.879 31.8253C107.941 31.8253 108.002 31.8253 108.063 31.8253C108.124 31.8253 108.186 31.8253 108.247 31.8253C108.308 31.8253 108.369 31.8253 108.431 31.8253C108.492 31.8253 108.553 31.8253 108.614 31.8253C108.676 31.8253 108.737 31.8253 108.798 31.8253C108.859 31.8253 108.921 31.8253 108.982 31.8253C109.043 31.8253 109.104 31.8253 109.166 31.8253C109.227 31.8253 109.288 31.8253 109.349 31.8253C109.411 31.8253 109.472 31.8253 109.533 31.8253C109.594 31.8253 109.656 31.8253 109.717 31.8253C109.778 31.8253 109.839 31.8253 109.901 31.8253C109.962 31.8253 110.023 31.8253 110.084 31.8253C110.146 31.8253 110.207 31.8253 110.268 31.8253C110.329 31.8253 110.391 31.8253 110.452 31.8253C110.513 31.8253 110.574 31.8253 110.636 31.8253C110.697 31.8253 110.758 31.8253 110.819 31.8253C110.881 31.8253 110.942 31.8253 111.003 31.8253C111.064 31.8253 111.126 31.8253 111.187 31.8253C111.248 31.8253 111.309 31.8253 111.371 31.8253C111.432 31.8253 111.493 31.8253 111.554 31.8253C111.616 31.8253 111.677 31.8253 111.738 31.8253C111.799 31.8253 111.861 31.8253 111.922 31.8253C111.983 31.8253 112.044 31.8253 112.106 31.8253C112.167 31.8253 112.228 31.8253 112.289 31.8253C112.351 31.8253 112.412 31.8253 112.473 31.8253C112.534 31.8253 112.596 31.8253 112.657 31.8253C112.718 31.8253 112.779 31.8253 112.841 31.8253C112.902 31.8253 112.963 31.8253 113.024 31.8253C113.085 31.8253 113.147 31.8253 113.208 31.8253C113.269 31.8253 113.33 31.8253 113.392 31.8253C113.453 31.8253 113.514 31.8253 113.575 31.8253C113.637 31.8253 113.698 31.8253 113.759 31.8253C113.82 31.8253 113.882 31.8253 113.943 31.8253C114.004 31.8253 114.065 31.8253 114.127 31.8253C114.188 31.8253 114.249 31.8253 114.31 31.8253C114.372 31.8253 114.433 31.8253 114.494 31.8253C114.555 31.8253 114.617 31.8253 114.678 31.8253C114.739 31.8253 114.8 31.8253 114.862 31.8253C114.923 31.8253 114.984 31.8253 115.045 31.8253C115.107 31.8253 115.168 31.8253 115.229 31.8253C115.29 31.8253 115.352 31.8253 115.413 31.8253C115.474 31.8253 115.535 31.8253 115.597 31.8253C115.658 31.8253 115.719 31.8253 115.78 31.8253C115.842 31.8253 115.903 31.8253 115.964 31.8253C116.025 31.8253 116.087 31.8253 116.148 31.8253C116.209 31.8253 116.27 31.8253 116.332 31.8253C116.393 31.8253 116.454 31.8253 116.515 31.8253C116.577 31.8253 116.638 31.8253 116.699 31.8253C116.76 31.8253 116.822 31.8253 116.883 31.8253C116.944 31.8253 117.005 31.8253 117.067 31.8253C117.128 31.8253 117.189 31.8253 117.25 31.8253C117.312 31.8253 117.373 31.8253 117.434 31.8253C117.495 31.8253 117.557 31.8253 117.618 31.8253C117.679 31.8253 117.74 31.8253 117.802 31.8253C117.863 31.8253 117.924 31.8253 117.985 31.8253C118.047 31.8253 118.108 31.8253 118.169 31.8253C118.23 31.8253 118.292 31.8253 118.353 31.8253C118.414 31.8253 118.475 31.8253 118.537 31.8253C118.598 31.8253 118.659 31.8253 118.72 31.8253C118.782 31.8253 118.843 31.8253 118.904 31.8253C118.965 31.8253 119.027 31.8253 119.088 31.8253C119.149 31.8253 119.21 31.8253 119.272 31.8253C119.333 31.8253 119.394 31.8253 119.455 31.8253C119.517 31.8253 119.578 31.8253 119.639 31.8253C119.7 31.8253 119.762 31.8253 119.823 31.8253C119.884 31.8253 119.945 31.8253 120.007 31.8253C120.068 31.8253 120.129 31.8253 120.19 31.8253C120.251 31.8253 120.313 31.8253 120.374 31.8253C120.435 31.8253 120.496 31.8253 120.558 31.8253C120.619 31.8253 120.68 31.8253 120.741 31.8253C120.803 31.8253 120.864 31.8253 120.925 31.8253C120.986 31.8253 121.048 31.8253 121.109 31.8253C121.17 31.8253 121.231 31.8253 121.293 31.8253C121.354 31.8253 121.415 31.8253 121.476 31.8253C121.538 31.8253 121.599 31.8253 121.66 31.8253C121.721 31.8253 121.783 31.8253 121.844 31.8253C121.905 31.8253 121.966 31.8253 122.028 31.8253C122.089 31.8253 122.15 31.8253 122.211 31.8253C122.273 31.8253 122.334 31.8253 122.395 31.8253C122.456 31.8253 122.518 31.8253 122.579 31.8253C122.64 31.8253 122.701 31.8253 122.763 31.8253C122.824 31.8253 122.885 31.8253 122.946 31.8253C123.008 31.8253 123.069 31.8253 123.13 31.8253C123.191 31.8253 123.253 31.8253 123.314 31.8253C123.375 31.8253 123.436 31.8253 123.498 31.8253C123.559 31.8253 123.62 31.8253 123.681 31.8253C123.743 31.8253 123.804 31.8253 123.865 31.8253C123.926 31.8253 123.988 31.8253 124.049 31.8253C124.11 31.8253 124.171 31.8253 124.233 31.8253C124.294 31.8253 124.355 31.8253 124.416 31.8253C124.478 31.8253 124.539 31.8253 124.6 31.8253C124.661 31.8253 124.723 31.8253 124.784 31.8253C124.845 31.8253 124.906 31.8253 124.968 31.8253C125.029 31.8253 125.09 31.8253 125.151 31.8253C125.213 31.8253 125.274 31.8253 125.335 31.8253C125.396 31.8253 125.458 31.8253 125.519 31.8253C125.58 31.8253 125.641 31.8253 125.703 31.8253C125.764 31.8253 125.825 31.8253 125.886 31.8253C125.948 31.8253 126.009 31.8253 126.07 31.8253C126.131 31.8253 126.193 31.8253 126.254 31.8253C126.315 31.8253 126.376 31.8253 126.438 31.8253C126.499 31.8253 126.56 31.8253 126.621 31.8253C126.683 31.8253 126.744 31.8253 126.805 31.8253C126.866 31.8253 126.928 31.8253 126.989 31.8253C127.05 31.8253 127.111 31.8253 127.173 31.8253C127.234 31.8253 127.295 31.8253 127.356 31.8253C127.417 31.8253 127.479 31.8253 127.54 31.8253C127.601 31.8253 127.662 31.8253 127.724 31.8253C127.785 31.8253 127.846 31.8253 127.907 31.8253C127.969 31.8253 128.03 31.8253 128.091 31.8253C128.152 31.8253 128.214 31.8253 128.275 31.8253C128.336 31.8253 128.397 31.8253 128.459 31.8253C128.52 31.8253 128.581 31.8253 128.642 31.8253C128.704 31.8253 128.765 31.8253 128.826 31.8253C128.887 31.8253 128.949 31.8253 129.01 31.8253C129.071 31.8253 129.132 31.8253 129.194 31.8253C129.255 31.8253 129.316 31.8253 129.377 31.8253C129.439 31.8253 129.5 31.8253 129.561 31.8253C129.622 31.8253 129.684 31.8253 129.745 31.8253C129.806 31.8253 129.867 31.8253 129.929 31.8253C129.99 31.8253 130.051 31.8253 130.112 31.8253C130.174 31.8253 130.235 31.8253 130.296 31.8253C130.357 31.8253 130.419 31.8253 130.48 31.8253C130.541 31.8253 130.602 31.8253 130.664 31.8253C130.725 31.8253 130.786 31.8253 130.847 31.8253C130.909 31.8253 130.97 31.8253 131.031 31.8253C131.092 31.8253 131.154 31.8253 131.215 31.8253C131.276 31.8253 131.337 31.8253 131.399 31.8253C131.46 31.8253 131.521 31.8253 131.582 31.8253C131.644 31.8253 131.705 31.8253 131.766 31.8253C131.827 31.8253 131.889 31.8253 131.95 31.8253C132.011 31.8253 132.072 31.8253 132.134 31.8253C132.195 31.8253 132.256 31.8253 132.317 31.8253C132.379 31.8253 132.44 31.8253 132.501 31.8253C132.562 31.8253 132.624 31.8253 132.685 31.8253C132.746 31.8253 132.807 31.8253 132.869 31.8253C132.93 31.8253 132.991 31.8253 133.052 31.8253C133.114 31.8253 133.175 31.8253 133.236 31.8253C133.297 31.8253 133.359 31.8253 133.42 31.8253C133.481 31.8253 133.542 31.8253 133.604 31.8253C133.665 31.8253 133.726 31.8253 133.787 31.8253C133.849 31.8253 133.91 31.8253 133.971 31.8253C134.032 31.8253 134.094 31.8253 134.155 31.8253C134.216 31.8253 134.277 31.8253 134.339 31.8253C134.4 31.8253 134.461 31.8253 134.522 31.8253C134.583 31.8253 134.645 31.8253 134.706 31.8253C134.767 31.8253 134.828 31.8253 134.89 31.8253C134.951 31.8253 135.012 31.8253 135.073 31.8253C135.135 31.8253 135.196 31.8253 135.257 31.8253C135.318 31.8253 135.38 31.8253 135.441 31.8253C135.502 31.8253 135.563 31.8253 135.625 31.8253C135.686 31.8253 135.747 31.8253 135.808 31.8253C135.87 31.8253 135.931 31.8253 135.992 31.8253C136.053 31.8253 136.115 31.8253 136.176 31.8253C136.237 31.8253 136.298 31.8253 136.36 31.8253C136.421 31.8253 136.482 31.8253 136.543 31.8253C136.605 31.8253 136.666 31.8253 136.727 31.8253C136.788 31.8253 136.85 31.8253 136.911 31.8253C136.972 31.8253 137.033 31.8253 137.095 31.8253C137.156 31.8253 137.217 31.8253 137.278 31.8253C137.34 31.8253 137.401 31.8253 137.462 31.8253C137.523 31.8253 137.585 31.8253 137.646 31.8253C137.707 31.8253 137.768 31.8253 137.83 31.8253C137.891 31.8253 137.952 31.8253 138.013 31.8253C138.075 31.8253 138.136 31.8253 138.197 31.8253C138.258 31.8253 138.32 31.8253 138.381 31.8253C138.442 31.8253 138.503 31.8253 138.565 31.8253C138.626 31.8253 138.687 31.8253 138.748 31.8253C138.81 31.8253 138.871 31.8253 138.932 31.8253C138.993 31.8253 139.055 31.8253 139.116 31.8253C139.177 31.8253 139.238 31.8253 139.3 31.8253C139.361 31.8253 139.422 31.8253 139.483 31.8253C139.545 31.8253 139.606 31.8253 139.667 31.8253C139.728 31.8253 139.79 31.8253 139.851 31.8253C139.912 31.8253 139.973 31.8253 140.035 31.8253C140.096 31.8253 140.157 31.8253 140.218 31.8253C140.28 31.8253 140.341 31.8253 140.402 31.8253C140.463 31.8253 140.525 31.8253 140.586 31.8253C140.647 31.8253 140.708 31.8253 140.77 31.8253C140.831 31.8253 140.892 31.8253 140.953 31.8253C141.015 31.8253 141.076 31.8253 141.137 31.8253C141.198 31.8253 141.26 31.8253 141.321 31.8253C141.382 31.8253 141.443 31.8253 141.505 31.8253C141.566 31.8253 141.627 31.8253 141.688 31.8253C141.749 31.8253 141.811 31.8253 141.872 31.8253C141.933 31.8253 141.994 31.8253 142.056 31.8253C142.117 31.8253 142.178 31.8253 142.239 31.8253C142.301 31.8253 142.362 31.8253 142.423 31.8253C142.484 31.8253 142.546 31.8253 142.607 31.8253C142.668 31.8253 142.729 31.8253 142.791 31.8253C142.852 31.8253 142.913 31.8253 142.974 31.8253C143.036 31.8253 143.097 31.8253 143.158 31.8253C143.219 31.8253 143.281 31.8253 143.342 31.8253C143.403 31.8253 143.464 31.8253 143.526 31.8253C143.587 31.8253 143.648 31.8253 143.709 31.8253C143.771 31.8253 143.832 31.8253 143.893 31.8253C143.954 31.8253 144.016 31.8253 144.077 31.8253C144.138 31.8253 144.199 31.8253 144.261 31.8253C144.322 31.8253 144.383 31.8253 144.444 31.8253C144.506 31.8253 144.567 31.8253 144.628 31.8253C144.689 31.8253 144.751 31.8253 144.812 31.8253C144.873 31.8253 144.934 31.8253 144.996 31.8253C145.057 31.8253 145.118 31.8253 145.179 31.8253C145.241 31.8253 145.302 31.8253 145.363 31.8253C145.424 31.8253 145.486 31.8253 145.547 31.8253C145.608 31.8253 145.669 31.8253 145.731 31.8253C145.792 31.8253 145.853 31.8253 145.914 31.8253C145.976 31.8253 146.037 31.8253 146.098 31.8253C146.159 31.8253 146.221 31.8253 146.282 31.8253C146.343 31.8253 146.404 31.8253 146.466 31.8253C146.527 31.8253 146.588 31.8253 146.649 31.8253C146.711 31.8253 146.772 31.8253 146.833 31.8253C146.894 31.8253 146.956 31.8253 147.017 31.8253C147.078 31.8253 147.139 31.8253 147.201 31.8253C147.262 31.8253 147.323 31.8253 147.384 31.8253C147.446 31.8253 147.507 31.8253 147.568 31.8253C147.629 31.8253 147.691 31.8253 147.752 31.8253C147.813 31.8253 147.874 31.8253 147.936 31.8253C147.997 31.8253 148.058 31.8253 148.119 31.8253C148.181 31.8253 148.242 31.8253 148.303 31.8253C148.364 31.8253 148.426 31.8253 148.487 31.8253C148.548 31.8253 148.609 31.8253 148.671 31.8253C148.732 31.8253 148.793 31.8253 148.854 31.8253C148.915 31.8253 148.977 31.8253 149.038 31.8253C149.099 31.8253 149.16 31.8253 149.222 31.8253C149.283 31.8253 149.344 31.8253 149.405 31.8253C149.467 31.8253 149.528 31.8253 149.589 31.8253C149.65 31.8253 149.712 31.8253 149.773 31.8253C149.834 31.8253 149.895 31.8253 149.957 31.8253C150.018 31.8253 150.079 31.8253 150.14 31.8253C150.202 31.8253 150.263 31.8253 150.324 31.8253C150.385 31.8253 150.447 31.8253 150.508 31.8253C150.569 31.8253 150.63 31.8253 150.692 31.8253C150.753 31.8253 150.814 31.8253 150.875 31.8253C150.937 31.8253 150.998 31.8253 151.059 31.8253C151.12 31.8253 151.182 31.8253 151.243 31.8253C151.304 31.8253 151.365 31.8253 151.427 31.8253C151.488 31.8253 151.549 31.8253 151.61 31.8253C151.672 31.8253 151.733 31.8253 151.794 31.8253C151.855 31.8253 151.917 31.8253 151.978 31.8253C152.039 31.8253 152.1 31.8253 152.162 31.8253C152.223 31.8253 152.284 31.8253 152.345 31.8253C152.407 31.8253 152.468 31.8253 152.529 31.8253C152.59 31.8253 152.652 31.8253 152.713 31.8253C152.774 31.8253 152.835 31.8253 152.897 31.8253C152.958 31.8253 153.019 31.8253 153.08 31.8253C153.142 31.8253 153.203 31.8253 153.264 31.8253C153.325 31.8253 153.387 31.8253 153.448 31.8253C153.509 31.8253 153.57 31.8253 153.632 31.8253C153.693 31.8253 153.754 31.8253 153.815 31.8253C153.877 31.8253 153.938 31.8253 153.999 31.8253C154.06 31.8253 154.122 31.8253 154.183 31.8253C154.244 31.8253 154.305 31.8253 154.367 31.8253C154.428 31.8253 154.489 31.8253 154.55 31.8253C154.612 31.8253 154.673 31.8253 154.734 31.8253C154.795 31.8253 154.857 31.8253 154.918 31.8253C154.979 31.8253 155.04 31.8253 155.102 31.8253C155.163 31.8253 155.224 31.8253 155.285 31.8253C155.347 31.8253 155.408 31.8253 155.469 31.8253C155.53 31.8253 155.592 31.8253 155.653 31.8253C155.714 31.8253 155.775 31.8253 155.836 31.8253C155.898 31.8253 155.959 31.8253 156.02 31.8253C156.081 31.8253 156.143 31.8253 156.204 31.8253C156.265 31.8253 156.326 31.8253 156.388 31.8253C156.449 31.8253 156.51 31.8253 156.571 31.8253C156.633 31.8253 156.694 31.8253 156.755 31.8253C156.816 31.8253 156.878 31.8253 156.939 31.8253C157 31.8253 157.061 31.8253 157.123 31.8253C157.184 31.8253 157.245 31.8253 157.306 31.8253C157.368 31.8253 157.429 31.8253 157.49 31.8253C157.551 31.8253 157.613 31.8253 157.674 31.8253C157.735 31.8253 157.796 31.8253 157.858 31.8253C157.919 31.8253 157.98 31.8253 158.041 31.8253C158.103 31.8253 158.164 31.8253 158.225 31.8253C158.286 31.8253 158.348 31.8253 158.409 31.8253C158.47 31.8253 158.531 31.8253 158.593 31.8253C158.654 31.8253 158.715 31.8253 158.776 31.8253C158.838 31.8253 158.899 31.8253 158.96 31.8253C159.021 31.8253 159.083 31.8253 159.144 31.8253C159.205 31.8253 159.266 31.8253 159.328 31.8253C159.389 31.8253 159.45 31.8253 159.511 31.8253C159.573 31.8253 159.634 31.8253 159.695 31.8253C159.756 31.8253 159.818 31.8253 159.879 31.8253C159.94 31.8253 160.001 31.8253 160.063 31.8253C160.124 31.8253 160.185 31.8253 160.246 31.8253C160.308 31.8253 160.369 31.8253 160.43 31.8253C160.491 31.8253 160.553 31.8253 160.614 31.8253C160.675 31.8253 160.736 31.8253 160.798 31.8253C160.859 31.8253 160.92 31.8253 160.981 31.8253C161.043 31.8253 161.104 31.8253 161.165 31.8253C161.226 31.8253 161.288 31.8253 161.349 31.8253C161.41 31.8253 161.471 31.8253 161.533 31.8253C161.594 31.8253 161.655 31.8253 161.716 31.8253C161.778 31.8253 161.839 31.8253 161.9 31.8253C161.961 31.8253 162.023 31.8253 162.084 31.8253C162.145 31.8253 162.206 31.8253 162.268 31.8253C162.329 31.8253 162.39 31.8253 162.451 31.8253C162.513 31.8253 162.574 31.8253 162.635 31.8253C162.696 31.8253 162.758 31.8253 162.819 31.8253C162.88 31.8253 162.941 31.8253 163.002 31.8253C163.064 31.8253 163.125 31.8253 163.186 31.8253C163.247 31.8253 163.309 31.8253 163.37 31.8253C163.431 31.8253 163.492 31.8253 163.554 31.8253C163.615 31.8253 163.676 31.8253 163.737 31.8253C163.799 31.8253 163.86 31.8253 163.921 31.8253C163.982 31.8253 164.044 31.8253 164.105 31.8253C164.166 31.8253 164.227 31.8253 164.289 31.8253C164.35 31.8253 164.411 31.8253 164.472 31.8253C164.534 31.8253 164.595 31.8253 164.656 31.8253C164.717 31.8253 164.779 31.8253 164.84 31.8253C164.901 31.8253 164.962 31.8253 165.024 31.8253C165.085 31.8253 165.146 31.8253 165.207 31.8253C165.269 31.8253 165.33 31.8253 165.391 31.8253C165.452 31.8253 165.514 31.8253 165.575 31.8253C165.636 31.8253 165.697 31.8253 165.759 31.8253C165.82 31.8253 165.881 31.8253 165.942 31.8253C166.004 31.8253 166.065 31.8253 166.126 31.8253C166.187 31.8253 166.249 31.8253 166.31 31.8253C166.371 31.8253 166.432 31.8253 166.494 31.8253C166.555 31.8253 166.616 31.8253 166.677 31.8253C166.739 31.8253 166.8 31.8253 166.861 31.8253C166.922 31.8253 166.984 31.8253 167.045 31.8253C167.106 31.8253 167.167 31.8253 167.229 31.8253C167.29 31.8253 167.351 31.8253 167.412 31.8253C167.474 31.8253 167.535 31.8253 167.596 31.8253C167.657 31.8253 167.719 31.8253 167.78 31.8253C167.841 31.8253 167.902 31.8253 167.964 31.8253C168.025 31.8253 168.086 31.8253 168.147 31.8253C168.209 31.8253 168.27 31.8253 168.331 31.8253C168.392 31.8253 168.454 31.8253 168.515 31.8253C168.576 31.8253 168.637 31.8253 168.699 31.8253C168.76 31.8253 168.821 31.8253 168.882 31.8253C168.944 31.8253 169.005 31.8253 169.066 31.8253C169.127 31.8253 169.189 31.8253 169.25 31.8253C169.311 31.8253 169.372 31.8253 169.434 31.8253C169.495 31.8253 169.556 31.8253 169.617 31.8253C169.679 31.8253 169.74 31.8253 169.801 31.8253C169.862 31.8253 169.923 31.8253 169.985 31.8253C170.046 31.8253 170.107 31.8253 170.168 31.8253C170.23 31.8253 170.291 31.8253 170.352 31.8253C170.413 31.8253 170.475 31.8253 170.536 31.8253C170.597 31.8253 170.658 31.8253 170.72 31.8253C170.781 31.8253 170.842 31.8253 170.903 31.8253C170.965 31.8253 171.026 31.8253 171.087 31.8253C171.148 31.8253 171.21 31.8253 171.271 31.8253C171.332 31.8253 171.393 31.8253 171.455 31.8253C171.516 31.8253 171.577 31.8253 171.638 31.8253C171.7 31.8253 171.761 31.8253 171.822 31.8253C171.883 31.8253 171.945 31.8253 172.006 31.8253C172.067 31.8253 172.128 31.8253 172.19 31.8253C172.251 31.8253 172.312 31.8253 172.373 31.8253C172.435 31.8253 172.496 31.8253 172.557 31.8253C172.618 31.8253 172.68 31.8253 172.741 31.8253C172.802 31.8253 172.863 31.8253 172.925 31.8253C172.986 31.8253 173.047 31.8253 173.108 31.8253C173.17 31.8253 173.231 31.8253 173.292 31.8253C173.353 31.8253 173.415 31.8253 173.476 31.8253C173.537 31.8253 173.598 31.8253 173.66 31.8253C173.721 31.8253 173.782 31.8253 173.843 31.8253C173.905 31.8253 173.966 31.8253 174.027 31.8253C174.088 31.8253 174.15 31.8253 174.211 31.8253C174.272 31.8253 174.333 31.8253 174.395 31.8253C174.456 31.8253 174.517 31.8253 174.578 31.8253C174.64 31.8253 174.701 31.8253 174.762 31.8253C174.823 31.8253 174.885 31.8253 174.946 31.8253C175.007 31.8253 175.068 31.8253 175.13 31.8253C175.191 31.8253 175.252 31.8253 175.313 31.8253C175.375 31.8253 175.436 31.8253 175.497 31.8253C175.558 31.8253 175.62 31.8253 175.681 31.8253C175.742 31.8253 175.803 31.8253 175.865 31.8253C175.926 31.8253 175.987 31.8253 176.048 31.8253C176.11 31.8253 176.171 31.8253 176.232 31.8253C176.293 31.8253 176.355 31.8253 176.416 31.8253C176.477 31.8253 176.538 31.8253 176.6 31.8253C176.661 31.8253 176.722 31.8253 176.783 31.8253C176.844 31.8253 176.906 31.8253 176.967 31.8253C177.028 31.8253 177.089 31.8253 177.151 31.8253C177.212 31.8253 177.273 31.8253 177.334 31.8253C177.396 31.8253 177.457 31.8253 177.518 31.8253C177.579 31.8253 177.641 31.8253 177.702 31.8253C177.763 31.8253 177.824 31.8253 177.886 31.8253C177.947 31.8253 178.008 31.8253 178.069 31.8253C178.131 31.8253 178.192 31.8253 178.253 31.8253C178.314 31.8253 178.376 31.8253 178.437 31.8253C178.498 31.8253 178.559 31.8253 178.621 31.8253C178.682 31.8253 178.743 31.8253 178.804 31.8253C178.866 31.8253 178.927 31.8253 178.988 31.8253C179.049 31.8253 179.111 31.8253 179.172 31.8253C179.233 31.8253 179.294 31.8253 179.356 31.8253C179.417 31.8253 179.478 31.8253 179.539 31.8253C179.601 31.8253 179.662 31.8253 179.723 31.8253C179.784 31.8253 179.846 31.8253 179.907 31.8253C179.968 31.8253 180.029 31.8253 180.091 31.8253C180.152 31.8253 180.213 31.8253 180.274 31.8253C180.336 31.8253 180.397 31.8253 180.458 31.8253C180.519 31.8253 180.581 31.8253 180.642 31.8253C180.703 31.8253 180.764 31.8253 180.826 31.8253C180.887 31.8253 180.948 31.8253 181.009 31.8253C181.071 31.8253 181.132 31.8253 181.193 31.8253C181.254 31.8253 181.316 31.8253 181.377 31.8253C181.438 31.8253 181.499 31.8253 181.561 31.8253C181.622 31.8253 181.683 31.8253 181.744 31.8253C181.806 31.8253 181.867 31.8253 181.928 31.8253C181.989 31.8253 182.051 31.8253 182.112 31.8253C182.173 31.8253 182.234 31.8253 182.296 31.8253C182.357 31.8253 182.418 31.8253 182.479 31.8253C182.541 31.8253 182.602 31.8253 182.663 31.8253C182.724 31.8253 182.786 31.8253 182.847 31.8253C182.908 31.8253 182.969 31.8253 183.031 31.8253C183.092 31.8253 183.153 31.8253 183.214 31.8253C183.276 31.8253 183.337 31.8253 183.398 31.8253C183.459 31.8253 183.521 31.8253 183.582 31.8253C183.643 31.8253 183.704 31.8253 183.766 31.8253C183.827 31.8253 183.888 31.8253 183.949 31.8253C184.01 31.8253 184.072 31.8253 184.133 31.8253C184.194 31.8253 184.255 31.8253 184.317 31.8253C184.378 31.8253 184.439 31.8253 184.5 31.8253C184.562 31.8253 184.623 31.8253 184.684 31.8253C184.745 31.8253 184.807 31.8253 184.868 31.8253C184.929 31.8253 184.99 31.8253 185.052 31.8253C185.113 31.8253 185.174 31.8253 185.235 31.8253C185.297 31.8253 185.358 31.8253 185.419 31.8253C185.48 31.8253 185.542 31.8253 185.603 31.8253C185.664 31.8253 185.725 31.8253 185.787 31.8253C185.848 31.8253 185.909 31.8253 185.97 31.8253C186.032 31.8253 186.093 31.8253 186.154 31.8253C186.215 31.8253 186.277 31.8253 186.338 31.8253C186.399 31.8253 186.46 31.8253 186.522 31.8253C186.583 31.8253 186.644 31.8253 186.705 31.8253C186.767 31.8253 186.828 31.8253 186.889 31.8253C186.95 31.8253 187.012 31.8253 187.073 31.8253C187.134 31.8253 187.195 31.8253 187.257 31.8253C187.318 31.8253 187.379 31.8253 187.44 31.8253C187.502 31.8253 187.563 31.8253 187.624 31.8253V26.8253C187.563 26.8253 187.502 26.8253 187.44 26.8253C187.379 26.8253 187.318 26.8253 187.257 26.8253C187.195 26.8253 187.134 26.8253 187.073 26.8253C187.012 26.8253 186.95 26.8253 186.889 26.8253C186.828 26.8253 186.767 26.8253 186.705 26.8253C186.644 26.8253 186.583 26.8253 186.522 26.8253C186.46 26.8253 186.399 26.8253 186.338 26.8253C186.277 26.8253 186.215 26.8253 186.154 26.8253C186.093 26.8253 186.032 26.8253 185.97 26.8253C185.909 26.8253 185.848 26.8253 185.787 26.8253C185.725 26.8253 185.664 26.8253 185.603 26.8253C185.542 26.8253 185.48 26.8253 185.419 26.8253C185.358 26.8253 185.297 26.8253 185.235 26.8253C185.174 26.8253 185.113 26.8253 185.052 26.8253C184.99 26.8253 184.929 26.8253 184.868 26.8253C184.807 26.8253 184.745 26.8253 184.684 26.8253C184.623 26.8253 184.562 26.8253 184.5 26.8253C184.439 26.8253 184.378 26.8253 184.317 26.8253C184.255 26.8253 184.194 26.8253 184.133 26.8253C184.072 26.8253 184.01 26.8253 183.949 26.8253C183.888 26.8253 183.827 26.8253 183.766 26.8253C183.704 26.8253 183.643 26.8253 183.582 26.8253C183.521 26.8253 183.459 26.8253 183.398 26.8253C183.337 26.8253 183.276 26.8253 183.214 26.8253C183.153 26.8253 183.092 26.8253 183.031 26.8253C182.969 26.8253 182.908 26.8253 182.847 26.8253C182.786 26.8253 182.724 26.8253 182.663 26.8253C182.602 26.8253 182.541 26.8253 182.479 26.8253C182.418 26.8253 182.357 26.8253 182.296 26.8253C182.234 26.8253 182.173 26.8253 182.112 26.8253C182.051 26.8253 181.989 26.8253 181.928 26.8253C181.867 26.8253 181.806 26.8253 181.744 26.8253C181.683 26.8253 181.622 26.8253 181.561 26.8253C181.499 26.8253 181.438 26.8253 181.377 26.8253C181.316 26.8253 181.254 26.8253 181.193 26.8253C181.132 26.8253 181.071 26.8253 181.009 26.8253C180.948 26.8253 180.887 26.8253 180.826 26.8253C180.764 26.8253 180.703 26.8253 180.642 26.8253C180.581 26.8253 180.519 26.8253 180.458 26.8253C180.397 26.8253 180.336 26.8253 180.274 26.8253C180.213 26.8253 180.152 26.8253 180.091 26.8253C180.029 26.8253 179.968 26.8253 179.907 26.8253C179.846 26.8253 179.784 26.8253 179.723 26.8253C179.662 26.8253 179.601 26.8253 179.539 26.8253C179.478 26.8253 179.417 26.8253 179.356 26.8253C179.294 26.8253 179.233 26.8253 179.172 26.8253C179.111 26.8253 179.049 26.8253 178.988 26.8253C178.927 26.8253 178.866 26.8253 178.804 26.8253C178.743 26.8253 178.682 26.8253 178.621 26.8253C178.559 26.8253 178.498 26.8253 178.437 26.8253C178.376 26.8253 178.314 26.8253 178.253 26.8253C178.192 26.8253 178.131 26.8253 178.069 26.8253C178.008 26.8253 177.947 26.8253 177.886 26.8253C177.824 26.8253 177.763 26.8253 177.702 26.8253C177.641 26.8253 177.579 26.8253 177.518 26.8253C177.457 26.8253 177.396 26.8253 177.334 26.8253C177.273 26.8253 177.212 26.8253 177.151 26.8253C177.089 26.8253 177.028 26.8253 176.967 26.8253C176.906 26.8253 176.844 26.8253 176.783 26.8253C176.722 26.8253 176.661 26.8253 176.6 26.8253C176.538 26.8253 176.477 26.8253 176.416 26.8253C176.355 26.8253 176.293 26.8253 176.232 26.8253C176.171 26.8253 176.11 26.8253 176.048 26.8253C175.987 26.8253 175.926 26.8253 175.865 26.8253C175.803 26.8253 175.742 26.8253 175.681 26.8253C175.62 26.8253 175.558 26.8253 175.497 26.8253C175.436 26.8253 175.375 26.8253 175.313 26.8253C175.252 26.8253 175.191 26.8253 175.13 26.8253C175.068 26.8253 175.007 26.8253 174.946 26.8253C174.885 26.8253 174.823 26.8253 174.762 26.8253C174.701 26.8253 174.64 26.8253 174.578 26.8253C174.517 26.8253 174.456 26.8253 174.395 26.8253C174.333 26.8253 174.272 26.8253 174.211 26.8253C174.15 26.8253 174.088 26.8253 174.027 26.8253C173.966 26.8253 173.905 26.8253 173.843 26.8253C173.782 26.8253 173.721 26.8253 173.66 26.8253C173.598 26.8253 173.537 26.8253 173.476 26.8253C173.415 26.8253 173.353 26.8253 173.292 26.8253C173.231 26.8253 173.17 26.8253 173.108 26.8253C173.047 26.8253 172.986 26.8253 172.925 26.8253C172.863 26.8253 172.802 26.8253 172.741 26.8253C172.68 26.8253 172.618 26.8253 172.557 26.8253C172.496 26.8253 172.435 26.8253 172.373 26.8253C172.312 26.8253 172.251 26.8253 172.19 26.8253C172.128 26.8253 172.067 26.8253 172.006 26.8253C171.945 26.8253 171.883 26.8253 171.822 26.8253C171.761 26.8253 171.7 26.8253 171.638 26.8253C171.577 26.8253 171.516 26.8253 171.455 26.8253C171.393 26.8253 171.332 26.8253 171.271 26.8253C171.21 26.8253 171.148 26.8253 171.087 26.8253C171.026 26.8253 170.965 26.8253 170.903 26.8253C170.842 26.8253 170.781 26.8253 170.72 26.8253C170.658 26.8253 170.597 26.8253 170.536 26.8253C170.475 26.8253 170.413 26.8253 170.352 26.8253C170.291 26.8253 170.23 26.8253 170.168 26.8253C170.107 26.8253 170.046 26.8253 169.985 26.8253C169.923 26.8253 169.862 26.8253 169.801 26.8253C169.74 26.8253 169.679 26.8253 169.617 26.8253C169.556 26.8253 169.495 26.8253 169.434 26.8253C169.372 26.8253 169.311 26.8253 169.25 26.8253C169.189 26.8253 169.127 26.8253 169.066 26.8253C169.005 26.8253 168.944 26.8253 168.882 26.8253C168.821 26.8253 168.76 26.8253 168.699 26.8253C168.637 26.8253 168.576 26.8253 168.515 26.8253C168.454 26.8253 168.392 26.8253 168.331 26.8253C168.27 26.8253 168.209 26.8253 168.147 26.8253C168.086 26.8253 168.025 26.8253 167.964 26.8253C167.902 26.8253 167.841 26.8253 167.78 26.8253C167.719 26.8253 167.657 26.8253 167.596 26.8253C167.535 26.8253 167.474 26.8253 167.412 26.8253C167.351 26.8253 167.29 26.8253 167.229 26.8253C167.167 26.8253 167.106 26.8253 167.045 26.8253C166.984 26.8253 166.922 26.8253 166.861 26.8253C166.8 26.8253 166.739 26.8253 166.677 26.8253C166.616 26.8253 166.555 26.8253 166.494 26.8253C166.432 26.8253 166.371 26.8253 166.31 26.8253C166.249 26.8253 166.187 26.8253 166.126 26.8253C166.065 26.8253 166.004 26.8253 165.942 26.8253C165.881 26.8253 165.82 26.8253 165.759 26.8253C165.697 26.8253 165.636 26.8253 165.575 26.8253C165.514 26.8253 165.452 26.8253 165.391 26.8253C165.33 26.8253 165.269 26.8253 165.207 26.8253C165.146 26.8253 165.085 26.8253 165.024 26.8253C164.962 26.8253 164.901 26.8253 164.84 26.8253C164.779 26.8253 164.717 26.8253 164.656 26.8253C164.595 26.8253 164.534 26.8253 164.472 26.8253C164.411 26.8253 164.35 26.8253 164.289 26.8253C164.227 26.8253 164.166 26.8253 164.105 26.8253C164.044 26.8253 163.982 26.8253 163.921 26.8253C163.86 26.8253 163.799 26.8253 163.737 26.8253C163.676 26.8253 163.615 26.8253 163.554 26.8253C163.492 26.8253 163.431 26.8253 163.37 26.8253C163.309 26.8253 163.247 26.8253 163.186 26.8253C163.125 26.8253 163.064 26.8253 163.002 26.8253C162.941 26.8253 162.88 26.8253 162.819 26.8253C162.758 26.8253 162.696 26.8253 162.635 26.8253C162.574 26.8253 162.513 26.8253 162.451 26.8253C162.39 26.8253 162.329 26.8253 162.268 26.8253C162.206 26.8253 162.145 26.8253 162.084 26.8253C162.023 26.8253 161.961 26.8253 161.9 26.8253C161.839 26.8253 161.778 26.8253 161.716 26.8253C161.655 26.8253 161.594 26.8253 161.533 26.8253C161.471 26.8253 161.41 26.8253 161.349 26.8253C161.288 26.8253 161.226 26.8253 161.165 26.8253C161.104 26.8253 161.043 26.8253 160.981 26.8253C160.92 26.8253 160.859 26.8253 160.798 26.8253C160.736 26.8253 160.675 26.8253 160.614 26.8253C160.553 26.8253 160.491 26.8253 160.43 26.8253C160.369 26.8253 160.308 26.8253 160.246 26.8253C160.185 26.8253 160.124 26.8253 160.063 26.8253C160.001 26.8253 159.94 26.8253 159.879 26.8253C159.818 26.8253 159.756 26.8253 159.695 26.8253C159.634 26.8253 159.573 26.8253 159.511 26.8253C159.45 26.8253 159.389 26.8253 159.328 26.8253C159.266 26.8253 159.205 26.8253 159.144 26.8253C159.083 26.8253 159.021 26.8253 158.96 26.8253C158.899 26.8253 158.838 26.8253 158.776 26.8253C158.715 26.8253 158.654 26.8253 158.593 26.8253C158.531 26.8253 158.47 26.8253 158.409 26.8253C158.348 26.8253 158.286 26.8253 158.225 26.8253C158.164 26.8253 158.103 26.8253 158.041 26.8253C157.98 26.8253 157.919 26.8253 157.858 26.8253C157.796 26.8253 157.735 26.8253 157.674 26.8253C157.613 26.8253 157.551 26.8253 157.49 26.8253C157.429 26.8253 157.368 26.8253 157.306 26.8253C157.245 26.8253 157.184 26.8253 157.123 26.8253C157.061 26.8253 157 26.8253 156.939 26.8253C156.878 26.8253 156.816 26.8253 156.755 26.8253C156.694 26.8253 156.633 26.8253 156.571 26.8253C156.51 26.8253 156.449 26.8253 156.388 26.8253C156.326 26.8253 156.265 26.8253 156.204 26.8253C156.143 26.8253 156.081 26.8253 156.02 26.8253C155.959 26.8253 155.898 26.8253 155.836 26.8253C155.775 26.8253 155.714 26.8253 155.653 26.8253C155.592 26.8253 155.53 26.8253 155.469 26.8253C155.408 26.8253 155.347 26.8253 155.285 26.8253C155.224 26.8253 155.163 26.8253 155.102 26.8253C155.04 26.8253 154.979 26.8253 154.918 26.8253C154.857 26.8253 154.795 26.8253 154.734 26.8253C154.673 26.8253 154.612 26.8253 154.55 26.8253C154.489 26.8253 154.428 26.8253 154.367 26.8253C154.305 26.8253 154.244 26.8253 154.183 26.8253C154.122 26.8253 154.06 26.8253 153.999 26.8253C153.938 26.8253 153.877 26.8253 153.815 26.8253C153.754 26.8253 153.693 26.8253 153.632 26.8253C153.57 26.8253 153.509 26.8253 153.448 26.8253C153.387 26.8253 153.325 26.8253 153.264 26.8253C153.203 26.8253 153.142 26.8253 153.08 26.8253C153.019 26.8253 152.958 26.8253 152.897 26.8253C152.835 26.8253 152.774 26.8253 152.713 26.8253C152.652 26.8253 152.59 26.8253 152.529 26.8253C152.468 26.8253 152.407 26.8253 152.345 26.8253C152.284 26.8253 152.223 26.8253 152.162 26.8253C152.1 26.8253 152.039 26.8253 151.978 26.8253C151.917 26.8253 151.855 26.8253 151.794 26.8253C151.733 26.8253 151.672 26.8253 151.61 26.8253C151.549 26.8253 151.488 26.8253 151.427 26.8253C151.365 26.8253 151.304 26.8253 151.243 26.8253C151.182 26.8253 151.12 26.8253 151.059 26.8253C150.998 26.8253 150.937 26.8253 150.875 26.8253C150.814 26.8253 150.753 26.8253 150.692 26.8253C150.63 26.8253 150.569 26.8253 150.508 26.8253C150.447 26.8253 150.385 26.8253 150.324 26.8253C150.263 26.8253 150.202 26.8253 150.14 26.8253C150.079 26.8253 150.018 26.8253 149.957 26.8253C149.895 26.8253 149.834 26.8253 149.773 26.8253C149.712 26.8253 149.65 26.8253 149.589 26.8253C149.528 26.8253 149.467 26.8253 149.405 26.8253C149.344 26.8253 149.283 26.8253 149.222 26.8253C149.16 26.8253 149.099 26.8253 149.038 26.8253C148.977 26.8253 148.915 26.8253 148.854 26.8253C148.793 26.8253 148.732 26.8253 148.671 26.8253C148.609 26.8253 148.548 26.8253 148.487 26.8253C148.426 26.8253 148.364 26.8253 148.303 26.8253C148.242 26.8253 148.181 26.8253 148.119 26.8253C148.058 26.8253 147.997 26.8253 147.936 26.8253C147.874 26.8253 147.813 26.8253 147.752 26.8253C147.691 26.8253 147.629 26.8253 147.568 26.8253C147.507 26.8253 147.446 26.8253 147.384 26.8253C147.323 26.8253 147.262 26.8253 147.201 26.8253C147.139 26.8253 147.078 26.8253 147.017 26.8253C146.956 26.8253 146.894 26.8253 146.833 26.8253C146.772 26.8253 146.711 26.8253 146.649 26.8253C146.588 26.8253 146.527 26.8253 146.466 26.8253C146.404 26.8253 146.343 26.8253 146.282 26.8253C146.221 26.8253 146.159 26.8253 146.098 26.8253C146.037 26.8253 145.976 26.8253 145.914 26.8253C145.853 26.8253 145.792 26.8253 145.731 26.8253C145.669 26.8253 145.608 26.8253 145.547 26.8253C145.486 26.8253 145.424 26.8253 145.363 26.8253C145.302 26.8253 145.241 26.8253 145.179 26.8253C145.118 26.8253 145.057 26.8253 144.996 26.8253C144.934 26.8253 144.873 26.8253 144.812 26.8253C144.751 26.8253 144.689 26.8253 144.628 26.8253C144.567 26.8253 144.506 26.8253 144.444 26.8253C144.383 26.8253 144.322 26.8253 144.261 26.8253C144.199 26.8253 144.138 26.8253 144.077 26.8253C144.016 26.8253 143.954 26.8253 143.893 26.8253C143.832 26.8253 143.771 26.8253 143.709 26.8253C143.648 26.8253 143.587 26.8253 143.526 26.8253C143.464 26.8253 143.403 26.8253 143.342 26.8253C143.281 26.8253 143.219 26.8253 143.158 26.8253C143.097 26.8253 143.036 26.8253 142.974 26.8253C142.913 26.8253 142.852 26.8253 142.791 26.8253C142.729 26.8253 142.668 26.8253 142.607 26.8253C142.546 26.8253 142.484 26.8253 142.423 26.8253C142.362 26.8253 142.301 26.8253 142.239 26.8253C142.178 26.8253 142.117 26.8253 142.056 26.8253C141.994 26.8253 141.933 26.8253 141.872 26.8253C141.811 26.8253 141.749 26.8253 141.688 26.8253C141.627 26.8253 141.566 26.8253 141.505 26.8253C141.443 26.8253 141.382 26.8253 141.321 26.8253C141.26 26.8253 141.198 26.8253 141.137 26.8253C141.076 26.8253 141.015 26.8253 140.953 26.8253C140.892 26.8253 140.831 26.8253 140.77 26.8253C140.708 26.8253 140.647 26.8253 140.586 26.8253C140.525 26.8253 140.463 26.8253 140.402 26.8253C140.341 26.8253 140.28 26.8253 140.218 26.8253C140.157 26.8253 140.096 26.8253 140.035 26.8253C139.973 26.8253 139.912 26.8253 139.851 26.8253C139.79 26.8253 139.728 26.8253 139.667 26.8253C139.606 26.8253 139.545 26.8253 139.483 26.8253C139.422 26.8253 139.361 26.8253 139.3 26.8253C139.238 26.8253 139.177 26.8253 139.116 26.8253C139.055 26.8253 138.993 26.8253 138.932 26.8253C138.871 26.8253 138.81 26.8253 138.748 26.8253C138.687 26.8253 138.626 26.8253 138.565 26.8253C138.503 26.8253 138.442 26.8253 138.381 26.8253C138.32 26.8253 138.258 26.8253 138.197 26.8253C138.136 26.8253 138.075 26.8253 138.013 26.8253C137.952 26.8253 137.891 26.8253 137.83 26.8253C137.768 26.8253 137.707 26.8253 137.646 26.8253C137.585 26.8253 137.523 26.8253 137.462 26.8253C137.401 26.8253 137.34 26.8253 137.278 26.8253C137.217 26.8253 137.156 26.8253 137.095 26.8253C137.033 26.8253 136.972 26.8253 136.911 26.8253C136.85 26.8253 136.788 26.8253 136.727 26.8253C136.666 26.8253 136.605 26.8253 136.543 26.8253C136.482 26.8253 136.421 26.8253 136.36 26.8253C136.298 26.8253 136.237 26.8253 136.176 26.8253C136.115 26.8253 136.053 26.8253 135.992 26.8253C135.931 26.8253 135.87 26.8253 135.808 26.8253C135.747 26.8253 135.686 26.8253 135.625 26.8253C135.563 26.8253 135.502 26.8253 135.441 26.8253C135.38 26.8253 135.318 26.8253 135.257 26.8253C135.196 26.8253 135.135 26.8253 135.073 26.8253C135.012 26.8253 134.951 26.8253 134.89 26.8253C134.828 26.8253 134.767 26.8253 134.706 26.8253C134.645 26.8253 134.583 26.8253 134.522 26.8253C134.461 26.8253 134.4 26.8253 134.339 26.8253C134.277 26.8253 134.216 26.8253 134.155 26.8253C134.094 26.8253 134.032 26.8253 133.971 26.8253C133.91 26.8253 133.849 26.8253 133.787 26.8253C133.726 26.8253 133.665 26.8253 133.604 26.8253C133.542 26.8253 133.481 26.8253 133.42 26.8253C133.359 26.8253 133.297 26.8253 133.236 26.8253C133.175 26.8253 133.114 26.8253 133.052 26.8253C132.991 26.8253 132.93 26.8253 132.869 26.8253C132.807 26.8253 132.746 26.8253 132.685 26.8253C132.624 26.8253 132.562 26.8253 132.501 26.8253C132.44 26.8253 132.379 26.8253 132.317 26.8253C132.256 26.8253 132.195 26.8253 132.134 26.8253C132.072 26.8253 132.011 26.8253 131.95 26.8253C131.889 26.8253 131.827 26.8253 131.766 26.8253C131.705 26.8253 131.644 26.8253 131.582 26.8253C131.521 26.8253 131.46 26.8253 131.399 26.8253C131.337 26.8253 131.276 26.8253 131.215 26.8253C131.154 26.8253 131.092 26.8253 131.031 26.8253C130.97 26.8253 130.909 26.8253 130.847 26.8253C130.786 26.8253 130.725 26.8253 130.664 26.8253C130.602 26.8253 130.541 26.8253 130.48 26.8253C130.419 26.8253 130.357 26.8253 130.296 26.8253C130.235 26.8253 130.174 26.8253 130.112 26.8253C130.051 26.8253 129.99 26.8253 129.929 26.8253C129.867 26.8253 129.806 26.8253 129.745 26.8253C129.684 26.8253 129.622 26.8253 129.561 26.8253C129.5 26.8253 129.439 26.8253 129.377 26.8253C129.316 26.8253 129.255 26.8253 129.194 26.8253C129.132 26.8253 129.071 26.8253 129.01 26.8253C128.949 26.8253 128.887 26.8253 128.826 26.8253C128.765 26.8253 128.704 26.8253 128.642 26.8253C128.581 26.8253 128.52 26.8253 128.459 26.8253C128.397 26.8253 128.336 26.8253 128.275 26.8253C128.214 26.8253 128.152 26.8253 128.091 26.8253C128.03 26.8253 127.969 26.8253 127.907 26.8253C127.846 26.8253 127.785 26.8253 127.724 26.8253C127.662 26.8253 127.601 26.8253 127.54 26.8253C127.479 26.8253 127.417 26.8253 127.356 26.8253C127.295 26.8253 127.234 26.8253 127.173 26.8253C127.111 26.8253 127.05 26.8253 126.989 26.8253C126.928 26.8253 126.866 26.8253 126.805 26.8253C126.744 26.8253 126.683 26.8253 126.621 26.8253C126.56 26.8253 126.499 26.8253 126.438 26.8253C126.376 26.8253 126.315 26.8253 126.254 26.8253C126.193 26.8253 126.131 26.8253 126.07 26.8253C126.009 26.8253 125.948 26.8253 125.886 26.8253C125.825 26.8253 125.764 26.8253 125.703 26.8253C125.641 26.8253 125.58 26.8253 125.519 26.8253C125.458 26.8253 125.396 26.8253 125.335 26.8253C125.274 26.8253 125.213 26.8253 125.151 26.8253C125.09 26.8253 125.029 26.8253 124.968 26.8253C124.906 26.8253 124.845 26.8253 124.784 26.8253C124.723 26.8253 124.661 26.8253 124.6 26.8253C124.539 26.8253 124.478 26.8253 124.416 26.8253C124.355 26.8253 124.294 26.8253 124.233 26.8253C124.171 26.8253 124.11 26.8253 124.049 26.8253C123.988 26.8253 123.926 26.8253 123.865 26.8253C123.804 26.8253 123.743 26.8253 123.681 26.8253C123.62 26.8253 123.559 26.8253 123.498 26.8253C123.436 26.8253 123.375 26.8253 123.314 26.8253C123.253 26.8253 123.191 26.8253 123.13 26.8253C123.069 26.8253 123.008 26.8253 122.946 26.8253C122.885 26.8253 122.824 26.8253 122.763 26.8253C122.701 26.8253 122.64 26.8253 122.579 26.8253C122.518 26.8253 122.456 26.8253 122.395 26.8253C122.334 26.8253 122.273 26.8253 122.211 26.8253C122.15 26.8253 122.089 26.8253 122.028 26.8253C121.966 26.8253 121.905 26.8253 121.844 26.8253C121.783 26.8253 121.721 26.8253 121.66 26.8253C121.599 26.8253 121.538 26.8253 121.476 26.8253C121.415 26.8253 121.354 26.8253 121.293 26.8253C121.231 26.8253 121.17 26.8253 121.109 26.8253C121.048 26.8253 120.986 26.8253 120.925 26.8253C120.864 26.8253 120.803 26.8253 120.741 26.8253C120.68 26.8253 120.619 26.8253 120.558 26.8253C120.496 26.8253 120.435 26.8253 120.374 26.8253C120.313 26.8253 120.251 26.8253 120.19 26.8253C120.129 26.8253 120.068 26.8253 120.007 26.8253C119.945 26.8253 119.884 26.8253 119.823 26.8253C119.762 26.8253 119.7 26.8253 119.639 26.8253C119.578 26.8253 119.517 26.8253 119.455 26.8253C119.394 26.8253 119.333 26.8253 119.272 26.8253C119.21 26.8253 119.149 26.8253 119.088 26.8253C119.027 26.8253 118.965 26.8253 118.904 26.8253C118.843 26.8253 118.782 26.8253 118.72 26.8253C118.659 26.8253 118.598 26.8253 118.537 26.8253C118.475 26.8253 118.414 26.8253 118.353 26.8253C118.292 26.8253 118.23 26.8253 118.169 26.8253C118.108 26.8253 118.047 26.8253 117.985 26.8253C117.924 26.8253 117.863 26.8253 117.802 26.8253C117.74 26.8253 117.679 26.8253 117.618 26.8253C117.557 26.8253 117.495 26.8253 117.434 26.8253C117.373 26.8253 117.312 26.8253 117.25 26.8253C117.189 26.8253 117.128 26.8253 117.067 26.8253C117.005 26.8253 116.944 26.8253 116.883 26.8253C116.822 26.8253 116.76 26.8253 116.699 26.8253C116.638 26.8253 116.577 26.8253 116.515 26.8253C116.454 26.8253 116.393 26.8253 116.332 26.8253C116.27 26.8253 116.209 26.8253 116.148 26.8253C116.087 26.8253 116.025 26.8253 115.964 26.8253C115.903 26.8253 115.842 26.8253 115.78 26.8253C115.719 26.8253 115.658 26.8253 115.597 26.8253C115.535 26.8253 115.474 26.8253 115.413 26.8253C115.352 26.8253 115.29 26.8253 115.229 26.8253C115.168 26.8253 115.107 26.8253 115.045 26.8253C114.984 26.8253 114.923 26.8253 114.862 26.8253C114.8 26.8253 114.739 26.8253 114.678 26.8253C114.617 26.8253 114.555 26.8253 114.494 26.8253C114.433 26.8253 114.372 26.8253 114.31 26.8253C114.249 26.8253 114.188 26.8253 114.127 26.8253C114.065 26.8253 114.004 26.8253 113.943 26.8253C113.882 26.8253 113.82 26.8253 113.759 26.8253C113.698 26.8253 113.637 26.8253 113.575 26.8253C113.514 26.8253 113.453 26.8253 113.392 26.8253C113.33 26.8253 113.269 26.8253 113.208 26.8253C113.147 26.8253 113.085 26.8253 113.024 26.8253C112.963 26.8253 112.902 26.8253 112.841 26.8253C112.779 26.8253 112.718 26.8253 112.657 26.8253C112.596 26.8253 112.534 26.8253 112.473 26.8253C112.412 26.8253 112.351 26.8253 112.289 26.8253C112.228 26.8253 112.167 26.8253 112.106 26.8253C112.044 26.8253 111.983 26.8253 111.922 26.8253C111.861 26.8253 111.799 26.8253 111.738 26.8253C111.677 26.8253 111.616 26.8253 111.554 26.8253C111.493 26.8253 111.432 26.8253 111.371 26.8253C111.309 26.8253 111.248 26.8253 111.187 26.8253C111.126 26.8253 111.064 26.8253 111.003 26.8253C110.942 26.8253 110.881 26.8253 110.819 26.8253C110.758 26.8253 110.697 26.8253 110.636 26.8253C110.574 26.8253 110.513 26.8253 110.452 26.8253C110.391 26.8253 110.329 26.8253 110.268 26.8253C110.207 26.8253 110.146 26.8253 110.084 26.8253C110.023 26.8253 109.962 26.8253 109.901 26.8253C109.839 26.8253 109.778 26.8253 109.717 26.8253C109.656 26.8253 109.594 26.8253 109.533 26.8253C109.472 26.8253 109.411 26.8253 109.349 26.8253C109.288 26.8253 109.227 26.8253 109.166 26.8253C109.104 26.8253 109.043 26.8253 108.982 26.8253C108.921 26.8253 108.859 26.8253 108.798 26.8253C108.737 26.8253 108.676 26.8253 108.614 26.8253C108.553 26.8253 108.492 26.8253 108.431 26.8253C108.369 26.8253 108.308 26.8253 108.247 26.8253C108.186 26.8253 108.124 26.8253 108.063 26.8253C108.002 26.8253 107.941 26.8253 107.879 26.8253C107.818 26.8253 107.757 26.8253 107.696 26.8253C107.634 26.8253 107.573 26.8253 107.512 26.8253C107.451 26.8253 107.389 26.8253 107.328 26.8253C107.267 26.8253 107.206 26.8253 107.144 26.8253C107.083 26.8253 107.022 26.8253 106.961 26.8253C106.899 26.8253 106.838 26.8253 106.777 26.8253C106.716 26.8253 106.654 26.8253 106.593 26.8253C106.532 26.8253 106.471 26.8253 106.409 26.8253C106.348 26.8253 106.287 26.8253 106.226 26.8253C106.164 26.8253 106.103 26.8253 106.042 26.8253C105.981 26.8253 105.92 26.8253 105.858 26.8253C105.797 26.8253 105.736 26.8253 105.675 26.8253C105.613 26.8253 105.552 26.8253 105.491 26.8253C105.43 26.8253 105.368 26.8253 105.307 26.8253C105.246 26.8253 105.185 26.8253 105.123 26.8253C105.062 26.8253 105.001 26.8253 104.94 26.8253C104.878 26.8253 104.817 26.8253 104.756 26.8253C104.695 26.8253 104.633 26.8253 104.572 26.8253C104.511 26.8253 104.45 26.8253 104.388 26.8253C104.327 26.8253 104.266 26.8253 104.205 26.8253C104.143 26.8253 104.082 26.8253 104.021 26.8253C103.96 26.8253 103.898 26.8253 103.837 26.8253C103.776 26.8253 103.715 26.8253 103.653 26.8253C103.592 26.8253 103.531 26.8253 103.47 26.8253C103.408 26.8253 103.347 26.8253 103.286 26.8253C103.225 26.8253 103.163 26.8253 103.102 26.8253C103.041 26.8253 102.98 26.8253 102.918 26.8253C102.857 26.8253 102.796 26.8253 102.735 26.8253C102.673 26.8253 102.612 26.8253 102.551 26.8253C102.49 26.8253 102.428 26.8253 102.367 26.8253C102.306 26.8253 102.245 26.8253 102.183 26.8253C102.122 26.8253 102.061 26.8253 102 26.8253C101.938 26.8253 101.877 26.8253 101.816 26.8253C101.755 26.8253 101.693 26.8253 101.632 26.8253C101.571 26.8253 101.51 26.8253 101.448 26.8253C101.387 26.8253 101.326 26.8253 101.265 26.8253C101.203 26.8253 101.142 26.8253 101.081 26.8253C101.02 26.8253 100.958 26.8253 100.897 26.8253C100.836 26.8253 100.775 26.8253 100.713 26.8253C100.652 26.8253 100.591 26.8253 100.53 26.8253C100.468 26.8253 100.407 26.8253 100.346 26.8253C100.285 26.8253 100.223 26.8253 100.162 26.8253C100.101 26.8253 100.04 26.8253 99.9785 26.8253C99.9172 26.8253 99.856 26.8253 99.7947 26.8253C99.7335 26.8253 99.6722 26.8253 99.611 26.8253C99.5497 26.8253 99.4885 26.8253 99.4272 26.8253C99.366 26.8253 99.3047 26.8253 99.2435 26.8253C99.1822 26.8253 99.121 26.8253 99.0597 26.8253C98.9985 26.8253 98.9372 26.8253 98.876 26.8253C98.8148 26.8253 98.7535 26.8253 98.6923 26.8253C98.631 26.8253 98.5698 26.8253 98.5085 26.8253C98.4473 26.8253 98.386 26.8253 98.3248 26.8253C98.2635 26.8253 98.2023 26.8253 98.141 26.8253C98.0798 26.8253 98.0185 26.8253 97.9573 26.8253C97.896 26.8253 97.8348 26.8253 97.7735 26.8253C97.7123 26.8253 97.651 26.8253 97.5898 26.8253C97.5285 26.8253 97.4673 26.8253 97.4061 26.8253C97.3448 26.8253 97.2836 26.8253 97.2223 26.8253C97.1611 26.8253 97.0998 26.8253 97.0386 26.8253C96.9773 26.8253 96.9161 26.8253 96.8548 26.8253C96.7936 26.8253 96.7323 26.8253 96.6711 26.8253C96.6098 26.8253 96.5486 26.8253 96.4873 26.8253C96.4261 26.8253 96.3648 26.8253 96.3036 26.8253C96.2423 26.8253 96.1811 26.8253 96.1198 26.8253C96.0586 26.8253 95.9973 26.8253 95.9361 26.8253C95.8749 26.8253 95.8136 26.8253 95.7524 26.8253C95.6911 26.8253 95.6299 26.8253 95.5686 26.8253C95.5074 26.8253 95.4461 26.8253 95.3849 26.8253C95.3236 26.8253 95.2624 26.8253 95.2011 26.8253C95.1399 26.8253 95.0786 26.8253 95.0174 26.8253C94.9561 26.8253 94.8949 26.8253 94.8336 26.8253C94.7724 26.8253 94.7111 26.8253 94.6499 26.8253C94.5886 26.8253 94.5274 26.8253 94.4662 26.8253C94.4049 26.8253 94.3437 26.8253 94.2824 26.8253C94.2212 26.8253 94.1599 26.8253 94.0987 26.8253C94.0374 26.8253 93.9762 26.8253 93.9149 26.8253C93.8537 26.8253 93.7924 26.8253 93.7312 26.8253C93.6699 26.8253 93.6087 26.8253 93.5474 26.8253V31.8253Z" fill="black"/>
</svg>
